<svg width="267" height="378" viewBox="0 0 267 378" fill="none" xmlns="http://www.w3.org/2000/svg">
<path fill-rule="evenodd" clip-rule="evenodd" d="M90.6443 110.325C104.748 91.103 162.292 81.9479 180.82 112.928L140.074 167.898L90.6443 110.325Z" fill="#235FB4"/>
<path fill-rule="evenodd" clip-rule="evenodd" d="M102.26 115.448C89.3978 116.557 84.5471 131.82 82.1062 146.646L104.775 145.497C105.621 135.27 105.996 125.103 102.26 115.448V115.448Z" fill="#46A0F2"/>
<path fill-rule="evenodd" clip-rule="evenodd" d="M104.842 145.482C105.14 157.987 90.4033 204.41 79.1877 204.608C74.088 205.673 41.1391 183.039 28.5063 171.641L37.1413 160.343L74.0918 182.833L83.5928 140.834L104.842 145.482Z" fill="#46A0F2"/>
<path fill-rule="evenodd" clip-rule="evenodd" d="M36.0034 157.447C41.9745 162.424 36.4172 176.797 27.7843 176.384L12.674 174.21C8.04291 173.63 4.68783 171.062 5.1114 169.388C5.52731 167.744 9.6496 166.986 12.92 167.19C9.72061 165.318 6.69692 163.114 6.77827 161.91C7.69253 157.786 11.4364 159.824 15.0708 159.3C11.7253 157.22 9.0618 154.929 9.52468 153.852C10.744 150.306 15.6815 152.508 18.6671 153.481C14.9395 150.983 12.2819 148.489 12.9947 147.505C14.3204 144.99 20.1272 147.068 23.9945 149.503C28.1465 151.607 32.1326 154.288 36.0034 157.447V157.447Z" fill="#46A0F2"/>
<path fill-rule="evenodd" clip-rule="evenodd" d="M138.2 264.58L139.071 358.154C138.862 362.06 139.731 365.723 142.536 367.503L160.782 375.023C171.036 379.249 177.822 367.586 171.345 363.441L160.219 356.32L160.898 264.085L138.2 264.58Z" fill="#F24664"/>
<path fill-rule="evenodd" clip-rule="evenodd" d="M128.881 271.331L128.01 357.502C128.219 361.408 126.671 364.074 123.867 365.854L109.692 375.567C99.4275 379.776 94.3401 367.943 99.8064 362.789L107.54 354.87L107.087 270.038L128.881 271.331Z" fill="#F24664"/>
<path d="M125.017 84.4427H141.687C143.089 84.4427 144.226 85.5795 144.226 86.9818V117.093C144.226 118.496 143.089 119.632 141.687 119.632H125.017C123.615 119.632 122.478 118.496 122.478 117.093V86.9818C122.478 85.5795 123.615 84.4427 125.017 84.4427Z" fill="#46A0F2"/>
<path fill-rule="evenodd" clip-rule="evenodd" d="M165.445 116.058C159.334 114.37 155.451 113.366 149.081 112.872C142.547 113.299 131.601 109.885 124.114 113.013C116.079 113.529 109.646 114.385 101.775 115.573L103.546 191.889L165.626 192.28L165.445 116.058Z" fill="#46A0F2"/>
<path fill-rule="evenodd" clip-rule="evenodd" d="M128.375 350.602C119.071 355.004 112.057 358.565 106.948 351.871C103.909 357.539 99.1445 362.598 93.9949 367.522C92.781 373.098 96.2605 375.226 100.071 377.11C103.82 377.718 107.116 379.024 114.144 374.572L130.774 361.882L128.375 350.602Z" fill="#363E49"/>
<path fill-rule="evenodd" clip-rule="evenodd" d="M139.018 353.215C148.889 356.522 156.365 359.255 160.452 352.036C164.295 357.311 169.76 361.786 175.587 366.082C177.607 371.474 174.467 373.98 170.964 376.281C167.336 377.311 164.259 378.981 156.638 375.365L138.29 364.673L139.018 353.215Z" fill="#363E49"/>
<path fill-rule="evenodd" clip-rule="evenodd" d="M104.628 114.783C98.1984 134.856 88.9986 147.276 91.8849 156.724C94.4567 161.827 96.4498 162.302 98.6447 165.166C97.6317 205.538 95.8213 257.719 94.7583 277.165C120.825 283.337 145.9 292.814 176.667 283.317C168.25 250.196 178.005 141.392 166.542 116.273C161.332 113.543 158.33 111.087 150.001 112.234C142.002 124.601 137.002 127.343 130.185 126.896C121.422 125.627 120.575 122.312 119.911 112.766C114.821 113.33 111.753 112.584 104.628 114.783V114.783Z" fill="#257AF2"/>
<path fill-rule="evenodd" clip-rule="evenodd" d="M165.087 115.541C177.949 116.649 182.8 131.913 185.241 146.738L162.572 145.59C161.725 135.363 161.351 125.195 165.087 115.541V115.541Z" fill="#46A0F2"/>
<path fill-rule="evenodd" clip-rule="evenodd" d="M162.503 145.575C162.206 158.08 176.942 204.502 188.158 204.7C193.257 205.766 226.206 183.132 238.839 171.734L230.204 160.436L193.254 182.925L183.753 140.926L162.503 145.575Z" fill="#46A0F2"/>
<path fill-rule="evenodd" clip-rule="evenodd" d="M231.342 157.54C225.371 162.517 230.928 176.89 239.561 176.476L254.671 174.303C259.303 173.723 262.658 171.154 262.234 169.48C261.818 167.836 257.696 167.079 254.425 167.283C257.625 165.41 260.649 163.207 260.567 162.003C259.653 157.879 255.909 159.916 252.275 159.392C255.62 157.313 258.284 155.022 257.821 153.945C256.601 150.399 251.664 152.601 248.678 153.573C252.406 151.075 255.064 148.582 254.351 147.598C253.025 145.083 247.218 147.16 243.351 149.596C239.199 151.7 235.213 154.381 231.342 157.54V157.54Z" fill="#46A0F2"/>
<path d="M164.556 15.0417C172.476 23.6649 176.78 35.1928 176.527 47.1015C176.273 59.0102 171.481 70.3294 163.202 78.581C154.922 86.8326 143.828 91.3443 132.348 91.1285C120.869 90.9127 109.94 85.9868 101.954 77.4293C93.9676 68.8718 89.5748 57.38 89.737 45.4696C89.8993 33.5592 94.6035 22.2008 102.82 13.8809C111.036 5.56099 122.095 0.95759 133.575 1.07843C145.056 1.19927 156.022 6.03449 164.074 14.5256" fill="#46A0F2"/>
<path d="M157.382 29.0355C153.148 26.262 148.177 25.4593 143.555 26.8031C138.933 28.1469 135.038 31.5275 132.723 36.2052C130.408 40.8828 129.861 46.4762 131.201 51.7608C132.542 57.0453 135.662 61.5904 139.877 64.4012C144.092 67.2119 149.06 68.0593 153.692 66.7577C158.324 65.456 162.244 62.1115 164.593 57.4564C166.942 52.8012 167.529 47.2146 166.225 41.9197C164.921 36.6248 161.833 32.0528 157.636 29.2049" fill="#FFECD2"/>
<path d="M155.812 30.1903C152.287 27.1939 147.934 26.0224 143.705 26.9323C139.476 27.8423 135.715 30.7594 133.247 35.0452C130.779 39.331 129.804 44.6361 130.535 49.7993C131.267 54.9625 133.646 59.5628 137.15 62.5934C140.655 65.624 145.001 66.8378 149.236 65.969C153.471 65.1003 157.25 62.2198 159.746 57.9582C162.242 53.6966 163.252 48.4011 162.554 43.231C161.856 38.061 159.508 33.4376 156.023 30.373" fill="#3F2631"/>
<path fill-rule="evenodd" clip-rule="evenodd" d="M101.352 33.249L32.573 54.8386L103.511 65.0167C109.062 63.1662 114.162 60.6372 116.464 53.9134C115.754 44.6214 109.415 35.9887 101.352 33.249Z" fill="#F24664"/>
<path fill-rule="evenodd" clip-rule="evenodd" d="M146.844 22.6084C157.968 17.4462 168.269 11.8391 172.289 0.864441C173.759 4.61679 171.672 13.0326 168.125 18.753C179.759 18.6829 188.052 13.1938 196.346 4.25712C192.896 14.7047 186.198 26.2636 167.663 32.6321C161.813 25.7741 156.394 22.0649 146.844 22.6084V22.6084Z" fill="#235FB4"/>
</svg>
