<svg width="198" height="374" viewBox="0 0 198 374" fill="none" xmlns="http://www.w3.org/2000/svg">
<path fill-rule="evenodd" clip-rule="evenodd" d="M67.6816 161.672C87.6326 147.982 108.377 144.11 130.814 161.209L102.288 189.932L67.6816 161.672Z" fill="#6E378B"/>
<path fill-rule="evenodd" clip-rule="evenodd" d="M103.28 284.048L104.15 350.48C103.941 354.386 104.811 358.049 107.615 359.829L125.861 367.349C136.116 371.575 142.901 359.912 136.425 355.767L125.299 348.646L125.978 283.552L103.28 284.048Z" fill="#F2AD46"/>
<path fill-rule="evenodd" clip-rule="evenodd" d="M94.5777 285.864L93.7073 352.296C93.9162 356.202 92.3682 358.868 89.5637 360.648L75.3886 370.361C65.1244 374.57 60.037 362.737 65.5036 357.583L73.2368 349.664L72.7846 284.57L94.5777 285.864Z" fill="#F2AD46"/>
<path fill-rule="evenodd" clip-rule="evenodd" d="M128.743 239.635L125.188 340.036L104.374 342.03L100.701 257.182C99.2161 256.18 98.9659 256.327 98.3342 257.581L93.5095 343.194L73.5221 344.375L71.3062 258.581L128.743 239.635Z" fill="#363E49"/>
<path d="M91.7729 154.271H111.259C111.884 154.271 112.39 154.777 112.39 155.402V168.812C112.39 169.436 111.884 169.942 111.259 169.942H91.7729C91.1484 169.942 90.6422 169.436 90.6422 168.812V155.402C90.6422 154.777 91.1484 154.271 91.7729 154.271Z" fill="#F2AD46"/>
<path fill-rule="evenodd" clip-rule="evenodd" d="M131.141 165.134C125.031 163.446 121.148 162.442 114.778 161.948C108.244 169.537 97.2981 171.802 89.811 162.09C81.7757 162.605 75.3423 163.462 67.4722 164.649L69.2429 240.966L131.323 241.356L131.141 165.134Z" fill="#F2AD46"/>
<path fill-rule="evenodd" clip-rule="evenodd" d="M68.1405 194.435C68.4922 206.939 70.7645 235.055 59.5498 235.302C54.4548 236.389 32.7828 221.7 20.1008 210.357L28.687 199.022L49.429 212.227L50.4495 188.991L68.1405 194.435Z" fill="#F2AD46"/>
<path fill-rule="evenodd" clip-rule="evenodd" d="M127.328 193.343C127.031 205.848 136.969 233.078 148.185 233.276C153.284 234.342 174.893 219.559 187.525 208.161L178.89 196.863L153.28 211.501L148.577 187.822L127.328 193.343Z" fill="#F2AD46"/>
<path fill-rule="evenodd" clip-rule="evenodd" d="M168.297 201.296C163.261 205.493 167.948 217.615 175.228 217.267L187.972 215.433C191.878 214.944 194.708 212.778 194.35 211.366C194 209.98 190.523 209.341 187.765 209.513C190.463 207.934 193.013 206.075 192.945 205.06C192.174 201.582 189.016 203.3 185.951 202.858C188.772 201.104 191.019 199.172 190.628 198.264C189.6 195.273 185.436 197.13 182.918 197.951C186.062 195.844 188.303 193.741 187.702 192.911C186.584 190.79 181.686 192.542 178.425 194.596C174.923 196.371 171.561 198.631 168.297 201.296V201.296Z" fill="#F2AD46"/>
<path fill-rule="evenodd" clip-rule="evenodd" d="M130.565 165.708C143.428 166.816 148.278 182.08 150.719 196.905L130.013 196.629L130.565 165.708Z" fill="#212A37"/>
<path fill-rule="evenodd" clip-rule="evenodd" d="M20.6685 212.987C27.1965 213.592 32.4751 201.715 27.0889 196.804L16.7953 189.071C13.692 186.649 10.1603 186.174 9.41216 187.423C8.67769 188.65 10.6792 191.564 12.7478 193.397C9.72448 192.6 6.60816 192.105 5.93736 192.87C4.0177 195.872 7.46366 196.895 9.31423 199.379C6.08019 198.618 3.1259 198.391 2.75829 199.308C1.36566 202.147 5.62017 203.787 7.97863 204.991C4.26724 204.251 1.19564 204.148 1.03195 205.159C0.318533 207.449 5.01657 209.681 8.77393 210.541C12.5025 211.77 16.4769 212.555 20.6685 212.987V212.987Z" fill="#F2AD46"/>
<path fill-rule="evenodd" clip-rule="evenodd" d="M94.4341 346.012C85.1297 350.415 78.1155 353.976 73.0063 347.281C69.9681 352.95 65.2032 358.009 60.0535 362.932C58.8396 368.508 62.3193 370.636 66.1301 372.52C69.8783 373.128 73.1742 374.435 80.2022 369.982L96.8328 357.292L94.4341 346.012Z" fill="#363E49"/>
<path fill-rule="evenodd" clip-rule="evenodd" d="M103.813 345.797C113.683 349.104 121.16 351.837 125.247 344.617C129.089 349.893 134.554 354.368 140.381 358.664C142.401 364.056 139.262 366.561 135.758 368.863C132.13 369.893 129.053 371.563 121.432 367.947L103.084 357.255L103.813 345.797Z" fill="#363E49"/>
<path d="M130.08 263.891H70.2873C69.6628 263.891 69.1565 264.397 69.1565 265.021V269.725C69.1565 270.35 69.6628 270.856 70.2873 270.856H130.08C130.705 270.856 131.211 270.35 131.211 269.725V265.021C131.211 264.397 130.705 263.891 130.08 263.891Z" fill="#592F6F"/>
<path fill-rule="evenodd" clip-rule="evenodd" d="M66.6237 164.477C56.3852 181.199 59.0587 234.3 66.6237 265.79L133.111 265.157C140.116 235.736 144.574 189.596 133.111 164.477C127.902 161.747 124.027 160.164 115.698 161.311C107.699 173.677 107.326 177.344 100.817 179.674C94.2131 176.863 89.8359 168.936 83.7203 160.044C78.6301 160.609 74.8393 159.224 66.6237 164.477V164.477Z" fill="#6E378B"/>
<path fill-rule="evenodd" clip-rule="evenodd" d="M75.7055 254.433L75.1724 243.377C83.3279 241.542 85.2907 234.402 87.4367 224.858L115.698 224.582C118.453 237.063 120.941 240.954 125.829 242.271V254.709L75.7055 254.433Z" fill="#592F6F"/>
<path fill-rule="evenodd" clip-rule="evenodd" d="M68.4478 164.027C55.5855 165.135 50.0109 180.228 46.7418 195.053C43.9919 207.153 44.3047 207.75 31.8639 199.949C29.6655 208.868 28.6658 213.301 30.5183 220.955C35.728 233.102 47.9062 240.745 62.7205 238.721L69 194.948L68.4478 164.027Z" fill="#6E378B"/>
<path d="M31.1428 200.02L24.1537 216.53C23.9102 217.105 24.1791 217.769 24.7542 218.012L29.0859 219.846C29.6609 220.089 30.3245 219.82 30.568 219.245L37.5571 202.735C37.8005 202.16 37.5317 201.496 36.9566 201.253L32.6249 199.419C32.0498 199.176 31.3863 199.445 31.1428 200.02Z" fill="#592F6F"/>
<path fill-rule="evenodd" clip-rule="evenodd" d="M131.286 166.303C144.148 167.411 149.723 182.503 152.992 197.328C155.741 209.428 155.429 210.026 167.87 202.225C170.068 211.143 171.068 215.577 169.215 223.231C164.005 235.377 151.827 243.02 137.013 240.997L130.733 197.224L131.286 166.303Z" fill="#6E378B"/>
<path d="M168.591 202.295L175.58 218.805C175.823 219.381 175.554 220.044 174.979 220.288L170.648 222.121C170.072 222.365 169.409 222.096 169.165 221.521L162.176 205.01C161.933 204.435 162.202 203.772 162.777 203.528L167.108 201.695C167.684 201.451 168.347 201.72 168.591 202.295Z" fill="#592F6F"/>
<path fill-rule="evenodd" clip-rule="evenodd" d="M135.171 69.7991C151.728 80.9732 154.407 104.635 149.307 122.761C139.29 148.453 116.41 161.135 89.6283 156.15C74.3991 151.463 65.6499 145.091 59.0536 131.428C54.2631 118.127 51.0061 77.655 73.3814 69.4154C95.9181 59.6703 109.947 57.9786 135.171 69.7991Z" fill="#FFECD2"/>
<path fill-rule="evenodd" clip-rule="evenodd" d="M136.961 101.338C138.071 106.691 138.063 114.906 136.098 124.077C125.857 152.007 111.709 153.72 84.9265 148.735C74.3442 146.241 66.2985 135.186 64.426 126.028C63.1454 119.138 61.0738 107.006 62.6349 100.283C67.0379 80.0155 131.887 76.9806 136.961 101.338V101.338Z" fill="#F2AD46"/>
<path fill-rule="evenodd" clip-rule="evenodd" d="M109.981 75.8396C112.527 55.3772 116.571 36.1726 131.981 19.2684C137.587 13.7088 143.333 8.35973 150.315 4.86363C177.789 -5.24709 182.916 14.2793 167.6 27.1255L153.981 38.9111C141.389 50.3491 129.518 63.7092 120.981 80.5539L109.981 75.8396Z" fill="#FFECD2"/>
<path fill-rule="evenodd" clip-rule="evenodd" d="M78.389 86.2455C70.3277 69.2193 64.0382 52.4288 67.64 31.8443C69.2392 24.811 71.0499 17.8711 74.7206 11.7551C90.9537 -9.50102 104.473 3.04471 98.9559 20.4537L94.2277 36.2138C90.1209 51.2027 87.512 67.3205 89.1807 84.4921L78.389 86.2455Z" fill="#FFECD2"/>
<path fill-rule="evenodd" clip-rule="evenodd" d="M78.1553 67.4805C75.2577 59.436 72.9972 51.503 74.2917 41.7774C74.8666 38.4544 75.5175 35.1755 76.8367 32.2859C82.6713 22.243 87.5307 28.1705 85.5476 36.3957L83.8481 43.8419C82.372 50.9237 81.4343 58.5389 82.0341 66.652L78.1553 67.4805Z" fill="#3F2631"/>
<path fill-rule="evenodd" clip-rule="evenodd" d="M118.666 64.2521C119.645 55.758 121.145 47.6468 126.627 39.5096C128.618 36.7882 130.659 34.1401 133.125 32.1377C142.814 25.7339 144.534 33.2035 139.102 39.6906L134.27 45.6059C129.801 51.294 125.577 57.6992 122.508 65.2337L118.666 64.2521Z" fill="#3F2631"/>
<path d="M84.141 97.7171C81.1214 95.7391 77.5754 95.1666 74.2792 96.1249C70.9831 97.0833 68.2053 99.4945 66.554 102.831C64.9027 106.167 64.5125 110.156 65.4688 113.925C66.425 117.694 68.6498 120.935 71.6562 122.94C74.6625 124.945 78.2055 125.549 81.5093 124.621C84.8131 123.692 87.6086 121.307 89.2838 117.987C90.9591 114.667 91.3776 110.683 90.4477 106.906C89.5178 103.13 87.3152 99.8691 84.3223 97.838" fill="#FFECD2"/>
<path d="M83.0961 99.0806C80.5824 96.9436 77.4775 96.1081 74.4613 96.757C71.4451 97.406 68.7633 99.4865 67.0029 102.543C65.2426 105.6 64.5472 109.383 65.0689 113.066C65.5907 116.748 67.2871 120.029 69.7868 122.191C72.2865 124.352 75.3857 125.218 78.4061 124.598C81.4265 123.979 84.1219 121.924 85.9022 118.885C87.6824 115.846 88.4025 112.069 87.9049 108.381C87.4072 104.694 85.7323 101.397 83.2468 99.211" fill="#3F2631"/>
<path d="M94.623 124.587C92.9365 124.454 90.3565 124.748 89.407 126.032C88.5059 129.852 92.628 133.421 94.3203 133.675C96.3343 133.67 100.301 129.555 99.4189 126.113C98.521 124.841 96.2608 124.743 94.7043 124.594" fill="#3F2631"/>
<path d="M119.788 98.1354C116.769 96.1574 113.223 95.5849 109.927 96.5433C106.631 97.5017 103.853 99.9128 102.201 103.249C100.55 106.585 100.16 110.574 101.116 114.343C102.072 118.112 104.297 121.354 107.304 123.358C110.31 125.363 113.853 125.967 117.157 125.039C120.461 124.111 123.256 121.725 124.931 118.405C126.607 115.085 127.025 111.101 126.095 107.324C125.165 103.548 122.963 100.287 119.97 98.2563" fill="#FFECD2"/>
<path d="M118.743 99.4988C116.23 97.3617 113.125 96.5263 110.109 97.1752C107.092 97.8242 104.41 99.9047 102.65 102.961C100.89 106.018 100.194 109.802 100.716 113.484C101.238 117.166 102.934 120.447 105.434 122.609C107.934 124.77 111.033 125.636 114.053 125.016C117.074 124.397 119.769 122.342 121.549 119.303C123.33 116.264 124.05 112.487 123.552 108.8C123.054 105.112 121.38 101.815 118.894 99.6292" fill="#3F2631"/>
<path d="M102.19 139.938L95.6662 132.636C95.2501 132.17 94.5353 132.13 94.0696 132.546C93.6039 132.962 93.5636 133.677 93.9797 134.142L100.503 141.445C100.919 141.911 101.634 141.951 102.1 141.535C102.566 141.119 102.606 140.404 102.19 139.938Z" fill="#3F2631"/>
<path d="M87.41 139.464L93.9337 132.161C94.3497 131.696 95.0646 131.655 95.5303 132.071C95.996 132.487 96.0362 133.202 95.6202 133.668L89.0965 140.97C88.6805 141.436 87.9657 141.476 87.5 141.06C87.0343 140.644 86.994 139.93 87.41 139.464Z" fill="#3F2631"/>
<path fill-rule="evenodd" clip-rule="evenodd" d="M115.302 161.399C112.539 167.49 105.903 173.664 101.027 180.145C113.748 172.644 132.933 169.089 132.379 164.04C132.935 157.704 117.797 155.072 115.302 161.399Z" fill="#592F6F"/>
<path fill-rule="evenodd" clip-rule="evenodd" d="M86.3962 161.667C89.1592 167.758 95.7951 173.931 100.671 180.413C87.9502 172.911 66.3906 169.199 66.9444 164.15C66.3881 157.814 83.901 155.34 86.3962 161.667Z" fill="#592F6F"/>
</svg>
