<svg width="245" height="288" viewBox="0 0 245 288" fill="none" xmlns="http://www.w3.org/2000/svg">
<path d="M65.9902 49.2648C83.2827 55.464 102.562 85.195 110.459 97.5341L109.164 154.726L105.139 181.46L83.2342 212.806C58.6857 216.96 32.6266 201.854 14.4986 170.507C12.6102 150.113 28.4723 136.517 63.8995 131.973C31.2674 133.505 38.7744 125.385 23.7605 88.6166C18.7563 76.3613 13.3966 76.8977 6.6019 65.1766C-0.192815 53.4555 4.31697 37.2613 4.31697 37.2613C16.8548 33.374 44.0528 41.4004 65.9902 49.2648Z" fill="#6E378B"/>
<path d="M63.8995 131.973C28.4723 136.517 12.6102 150.113 14.4986 170.507C32.6266 201.854 58.6857 216.96 83.2342 212.806L105.139 181.46L109.164 154.726L110.459 97.5341C102.562 85.195 83.2827 55.464 65.9902 49.2648C44.0528 41.4004 16.8548 33.374 4.31697 37.2613C4.31697 37.2613 -0.192815 53.4555 6.6019 65.1766C13.3966 76.8977 18.7563 76.3613 23.7605 88.6166C38.7744 125.385 31.2674 133.505 63.8995 131.973ZM63.8995 131.973H102.047" stroke="#3B2353" stroke-width="4"/>
<path d="M179.171 49.2648C161.878 55.464 142.599 85.195 134.702 97.5341L135.997 154.726L140.022 181.46L161.927 212.806C186.475 216.96 212.534 201.854 230.662 170.507C232.551 150.113 216.689 136.517 181.262 131.973C213.894 133.505 206.387 125.385 221.4 88.6166C226.405 76.3613 231.764 76.8977 238.559 65.1766C245.354 53.4555 240.844 37.2613 240.844 37.2613C228.306 33.374 201.108 41.4004 179.171 49.2648Z" fill="#6E378B"/>
<path d="M181.262 131.973C216.689 136.517 232.551 150.113 230.662 170.507C212.534 201.854 186.475 216.96 161.927 212.806L140.022 181.46L135.997 154.726L134.702 97.5341C142.599 85.195 161.878 55.464 179.171 49.2648C201.108 41.4004 228.306 33.374 240.844 37.2613C240.844 37.2613 245.354 53.4555 238.559 65.1766C231.764 76.8977 226.405 76.3613 221.4 88.6166C206.387 125.385 213.894 133.505 181.262 131.973ZM181.262 131.973H143.114" stroke="#3B2353" stroke-width="4"/>
<path d="M116.283 275.578L117.456 276.513C117.683 276.229 117.798 275.872 117.782 275.51L116.283 275.578ZM107.15 284.636C106.634 285.284 106.741 286.227 107.389 286.743C108.037 287.26 108.98 287.153 109.497 286.505L107.15 284.636ZM115.799 217.652C114.307 217.505 114.306 217.505 114.306 217.505C114.306 217.505 114.306 217.505 114.306 217.505C114.306 217.506 114.306 217.506 114.306 217.507C114.306 217.508 114.306 217.51 114.306 217.512C114.305 217.516 114.305 217.523 114.304 217.532C114.302 217.549 114.3 217.575 114.296 217.608C114.29 217.675 114.281 217.774 114.269 217.902C114.244 218.156 114.21 218.525 114.169 218.984C114.087 219.901 113.978 221.178 113.868 222.62C113.65 225.491 113.428 229.058 113.428 231.727L116.428 231.727C116.428 229.18 116.642 225.71 116.859 222.847C116.968 221.422 117.076 220.158 117.157 219.251C117.198 218.798 117.232 218.434 117.255 218.183C117.267 218.058 117.276 217.961 117.283 217.896C117.286 217.864 117.288 217.839 117.29 217.823C117.291 217.814 117.291 217.808 117.292 217.804C117.292 217.802 117.292 217.801 117.292 217.8C117.292 217.799 117.292 217.799 117.292 217.799C117.292 217.798 117.292 217.798 117.292 217.798C117.292 217.798 117.292 217.798 115.799 217.652ZM113.428 231.727C113.428 234.43 113.656 236.325 113.874 238.156C114.091 239.967 114.299 241.714 114.299 244.228L117.299 244.228C117.299 241.525 117.072 239.63 116.853 237.8C116.637 235.988 116.428 234.241 116.428 231.727L113.428 231.727ZM114.299 244.228C114.299 246.753 114.089 248.901 113.871 251.119C113.654 253.331 113.428 255.613 113.428 258.304L116.428 258.304C116.428 255.778 116.638 253.631 116.857 251.413C117.074 249.201 117.299 246.918 117.299 244.228L114.299 244.228ZM113.428 258.304C113.428 260.999 113.717 264.112 114.026 267.134C114.339 270.191 114.671 273.146 114.785 275.647L117.782 275.51C117.662 272.901 117.317 269.827 117.01 266.829C116.7 263.795 116.428 260.825 116.428 258.304L113.428 258.304ZM115.11 274.644L107.15 284.636L109.497 286.505L117.456 276.513L115.11 274.644Z" fill="black"/>
<path d="M129.924 275.578L128.751 276.513C128.525 276.229 128.409 275.872 128.426 275.51L129.924 275.578ZM139.057 284.636C139.573 285.284 139.466 286.227 138.818 286.743C138.17 287.26 137.227 287.153 136.71 286.505L139.057 284.636ZM130.408 217.652C131.901 217.505 131.901 217.505 131.901 217.505C131.901 217.505 131.901 217.505 131.901 217.505C131.901 217.506 131.901 217.506 131.901 217.507C131.901 217.508 131.901 217.51 131.901 217.512C131.902 217.516 131.902 217.523 131.903 217.532C131.905 217.549 131.907 217.575 131.911 217.608C131.917 217.675 131.927 217.774 131.939 217.902C131.963 218.156 131.997 218.525 132.038 218.984C132.12 219.901 132.229 221.178 132.339 222.62C132.557 225.491 132.779 229.058 132.779 231.727L129.779 231.727C129.779 229.18 129.565 225.71 129.348 222.847C129.239 221.422 129.131 220.158 129.05 219.251C129.009 218.798 128.975 218.434 128.952 218.183C128.94 218.058 128.931 217.961 128.924 217.896C128.921 217.864 128.919 217.839 128.917 217.823C128.916 217.814 128.916 217.808 128.915 217.804C128.915 217.802 128.915 217.801 128.915 217.8C128.915 217.799 128.915 217.799 128.915 217.799C128.915 217.798 128.915 217.798 128.915 217.798C128.915 217.798 128.915 217.798 130.408 217.652ZM132.779 231.727C132.779 234.43 132.552 236.325 132.333 238.156C132.116 239.967 131.908 241.714 131.908 244.228L128.908 244.228C128.908 241.525 129.135 239.63 129.354 237.8C129.571 235.988 129.779 234.241 129.779 231.727L132.779 231.727ZM131.908 244.228C131.908 246.753 132.118 248.901 132.336 251.119C132.553 253.331 132.779 255.613 132.779 258.304L129.779 258.304C129.779 255.778 129.569 253.631 129.35 251.413C129.133 249.201 128.908 246.918 128.908 244.228L131.908 244.228ZM132.779 258.304C132.779 260.999 132.49 264.112 132.181 267.134C131.868 270.191 131.536 273.146 131.422 275.647L128.426 275.51C128.545 272.901 128.89 269.827 129.197 266.829C129.507 263.795 129.779 260.825 129.779 258.304L132.779 258.304ZM131.097 274.644L139.057 284.636L136.71 286.505L128.751 276.513L131.097 274.644Z" fill="black"/>
<path d="M134.513 142.875C134.513 136.197 131.43 132.928 131.43 126.25C131.43 119.572 135.569 116.161 134.513 109.625C133.109 100.94 129.118 94 121.797 94C114.475 94 112.566 101.706 111.393 109.625C110.421 116.183 114.475 119.572 114.475 126.25C114.475 132.928 111.393 136.197 111.393 142.875C111.393 149.553 114.475 159.5 114.475 159.5C114.475 159.5 111.393 169.447 111.393 176.125C111.393 182.803 114.475 186.072 114.475 192.75C114.475 199.428 111.99 202.742 111.393 209.375C111.393 221.961 117.432 228.376 123.338 228.218C128.987 228.067 134.513 221.903 134.513 209.375C134.513 202.697 131.43 199.428 131.43 192.75C131.43 186.072 134.513 182.803 134.513 176.125C134.513 169.447 131.43 166.178 131.43 159.5C131.43 152.822 134.513 149.553 134.513 142.875Z" fill="#2B0045"/>
<ellipse cx="124.552" cy="73.3963" rx="22.8643" ry="28.2756" fill="#7D1CFF"/>
<path d="M116.687 52.0656C111.087 28.2709 118.873 1.25311 108.203 5.70462C103.986 8.50004 108.636 12.1235 109.784 8.53023" stroke="black" stroke-linecap="round" stroke-linejoin="round"/>
<path d="M133.687 52.0656C139.288 28.2709 131.502 1.25311 142.171 5.70462C146.388 8.50004 141.738 12.1235 140.591 8.53023" stroke="black" stroke-linecap="round" stroke-linejoin="round"/>
<path d="M115.594 179.967L114.594 108.967C112.595 108.721 111.567 107.976 111.094 105.967L103.594 108.967L106.094 129.967C106.094 129.967 105.522 141.227 105.703 150.989C105.784 155.353 106.767 159.428 106.594 163.794C106.408 168.474 104.594 177.967 104.594 177.967C104.601 179.446 104.935 179.999 106.594 179.967H115.594Z" fill="white"/>
<path d="M106.338 179.967H115.279V183.967C115.279 184.519 114.831 184.967 114.279 184.967H107.338C106.786 184.967 106.338 184.519 106.338 183.967V179.967Z" fill="#FF2727"/>
<rect x="106.338" y="180.967" width="8.9408" height="1" fill="white"/>
<rect x="106.338" y="182.967" width="8.9408" height="1" fill="white"/>
<path d="M112.5 101.406C112.584 102.361 113.922 103.251 115.988 104.133C116.218 104.231 116.578 104.555 116.391 105.074L114.594 108.967C112.532 108.821 111.911 108.378 110.513 106.111L112.5 101.406Z" fill="#FF2727"/>
<path d="M112.023 102.53C113.775 104.075 114.044 104.41 116.3 105.28L115.868 106.218C113.74 105.316 113.268 104.937 111.609 103.494L112.023 102.53Z" fill="white"/>
<path d="M111.242 104.359C112.751 105.838 113.376 106.285 115.469 107.1L115.051 107.991C112.978 107.24 112.213 106.718 110.845 105.304L111.242 104.359Z" fill="white"/>
<path d="M113.207 101.375C113.061 101.246 112.918 101.311 112.5 101.418C112.568 101.922 112.666 102.27 112.895 102.367L113.207 101.375Z" fill="#FF2727"/>
<path d="M99.6301 163.907C99.7971 164.718 100.59 165.24 101.402 165.073C102.213 164.906 102.735 164.113 102.568 163.302L99.6301 163.907ZM101.099 155.752C99.6199 155.503 99.6199 155.504 99.6199 155.504C99.6199 155.504 99.6199 155.504 99.6198 155.504C99.6198 155.504 99.6198 155.504 99.6198 155.504C99.6197 155.505 99.6196 155.505 99.6196 155.506C99.6194 155.507 99.6192 155.508 99.6189 155.509C99.6184 155.513 99.6177 155.517 99.6168 155.522C99.6151 155.533 99.6126 155.548 99.6096 155.567C99.6035 155.605 99.595 155.659 99.5849 155.725C99.5648 155.858 99.538 156.044 99.5112 156.256C99.4597 156.661 99.3992 157.23 99.3992 157.715L102.399 157.715C102.399 157.429 102.439 157.016 102.487 156.633C102.51 156.45 102.534 156.289 102.551 156.174C102.56 156.117 102.567 156.072 102.572 156.042C102.574 156.027 102.576 156.015 102.577 156.008C102.578 156.005 102.578 156.002 102.578 156.001C102.579 156 102.579 155.999 102.579 155.999C102.579 155.999 102.579 155.999 102.579 155.999C102.579 155.999 102.579 155.999 102.579 155.999C102.579 155.999 102.579 156 102.579 156C102.579 156 102.579 156 101.099 155.752ZM99.3992 157.715C99.3992 158.237 99.4696 158.644 99.5199 158.944C99.5696 159.24 99.5992 159.429 99.5992 159.678L102.599 159.678C102.599 159.156 102.529 158.748 102.479 158.448C102.429 158.152 102.399 157.963 102.399 157.715L99.3992 157.715ZM99.5992 159.678C99.5992 159.926 99.5696 160.115 99.5199 160.411C99.4696 160.711 99.3992 161.119 99.3992 161.641L102.399 161.641C102.399 161.393 102.429 161.203 102.479 160.907C102.529 160.607 102.599 160.2 102.599 159.678L99.5992 159.678ZM99.3992 161.641C99.3992 162.513 99.4542 163.052 99.6301 163.907L102.568 163.302C102.434 162.646 102.399 162.31 102.399 161.641L99.3992 161.641Z" fill="black"/>
<path d="M96.8955 151.202H105.126V154.202C105.126 155.307 104.231 156.202 103.126 156.202H98.8955C97.7909 156.202 96.8955 155.307 96.8955 154.202V151.202Z" fill="#FF2727"/>
<rect x="96.8955" y="152.202" width="8.23067" height="1" fill="white"/>
<path d="M96.8955 154.202H105.126C105.117 154.613 105.051 154.83 104.863 155.202L97.1508 155.189C96.9725 154.859 96.9226 154.638 96.8955 154.202Z" fill="white"/>
<path d="M98.2033 151.694H103.818C106.527 151.172 106.974 150.232 107.094 148.148C107.094 148.148 106.519 146.477 106.519 145.015C106.519 143.553 107.094 142.123 107.094 140.661V137.016C107.094 137.016 106.519 134.834 106.519 133.41C106.519 130.954 107.218 132.078 107.094 129.234C107.031 127.807 106.519 123.854 106.519 122.431C106.519 121.007 107.031 120.215 107.094 118.792C107.219 115.948 107.094 111.503 107.094 111.503C107.058 108.154 106.519 107.215 104.455 107.846C100.906 108.334 95.9154 111.901 94.928 120.467C94.7172 122.296 95.1443 123.601 95.1443 125.428C95.1443 127.255 94.8882 127.998 94.928 129.825C94.9693 131.729 95.7443 133.417 95.7443 135.244C95.7443 137.071 94.9474 137.429 94.928 139.183C94.9027 141.462 95.7413 143.757 95.7443 145.563C95.7473 147.419 94.928 148.542 94.928 148.542C95.1109 151.026 96.0139 151.504 98.2033 151.694Z" fill="#FF2727"/>
<line x1="101.447" y1="156.086" x2="101.62" y2="162.931" stroke="black"/>
<path d="M129.432 179.561L130.432 108.561C132.431 108.314 133.458 107.57 133.932 105.561L141.432 108.561L138.932 129.561C138.932 129.561 139.504 140.821 139.322 150.582C139.241 154.947 138.259 159.022 138.432 163.388C138.617 168.068 140.432 177.561 140.432 177.561C140.424 179.039 140.09 179.593 138.432 179.561H129.432Z" fill="white"/>
<path d="M138.687 179.561H129.746V183.561C129.746 184.113 130.194 184.561 130.746 184.561H137.687C138.24 184.561 138.687 184.113 138.687 183.561V179.561Z" fill="#FF2727"/>
<rect width="8.9408" height="1" transform="matrix(-1 0 0 1 138.687 180.561)" fill="white"/>
<rect width="8.9408" height="1" transform="matrix(-1 0 0 1 138.687 182.561)" fill="white"/>
<path d="M132.526 101C132.441 101.955 131.103 102.845 129.037 103.727C128.808 103.825 128.447 104.149 128.635 104.668L130.432 108.561C132.493 108.415 133.115 107.972 134.512 105.704L132.526 101Z" fill="#FF2727"/>
<path d="M133.002 102.123C131.25 103.669 130.981 104.004 128.725 104.874L129.158 105.812C131.285 104.91 131.757 104.531 133.416 103.088L133.002 102.123Z" fill="white"/>
<path d="M133.783 103.953C132.274 105.432 131.649 105.879 129.557 106.694L129.975 107.584C132.048 106.834 132.812 106.312 134.18 104.898L133.783 103.953Z" fill="white"/>
<path d="M131.818 100.969C131.964 100.84 132.107 100.905 132.525 101.012C132.458 101.516 132.359 101.864 132.131 101.961L131.818 100.969Z" fill="#FF2727"/>
<path d="M145.395 163.5C145.228 164.312 144.435 164.834 143.624 164.667C142.812 164.5 142.29 163.707 142.457 162.895L145.395 163.5ZM143.926 155.345C145.405 155.097 145.405 155.097 145.405 155.097C145.405 155.098 145.405 155.098 145.405 155.098C145.405 155.098 145.405 155.098 145.406 155.098C145.406 155.099 145.406 155.099 145.406 155.099C145.406 155.1 145.406 155.102 145.406 155.103C145.407 155.106 145.408 155.111 145.408 155.116C145.41 155.127 145.413 155.142 145.416 155.161C145.422 155.199 145.43 155.253 145.44 155.319C145.46 155.452 145.487 155.638 145.514 155.849C145.566 156.255 145.626 156.824 145.626 157.309L142.626 157.309C142.626 157.023 142.586 156.61 142.538 156.227C142.515 156.044 142.492 155.883 142.474 155.768C142.466 155.711 142.458 155.666 142.454 155.636C142.451 155.621 142.449 155.609 142.448 155.602C142.448 155.598 142.447 155.596 142.447 155.594C142.447 155.594 142.447 155.593 142.447 155.593C142.447 155.593 142.447 155.593 142.447 155.593C142.447 155.593 142.447 155.593 142.447 155.593C142.447 155.593 142.447 155.593 142.447 155.593C142.447 155.593 142.447 155.594 143.926 155.345ZM145.626 157.309C145.626 157.831 145.556 158.238 145.505 158.538C145.456 158.834 145.426 159.023 145.426 159.272L142.426 159.272C142.426 158.749 142.496 158.342 142.547 158.042C142.596 157.746 142.626 157.557 142.626 157.309L145.626 157.309ZM145.426 159.272C145.426 159.52 145.456 159.709 145.505 160.005C145.556 160.305 145.626 160.713 145.626 161.235L142.626 161.235C142.626 160.986 142.596 160.797 142.547 160.501C142.496 160.201 142.426 159.794 142.426 159.272L145.426 159.272ZM145.626 161.235C145.626 162.107 145.571 162.646 145.395 163.5L142.457 162.895C142.592 162.24 142.626 161.904 142.626 161.235L145.626 161.235Z" fill="black"/>
<path d="M148.13 150.796H139.899V153.796C139.899 154.9 140.795 155.796 141.899 155.796H146.13C147.234 155.796 148.13 154.9 148.13 153.796V150.796Z" fill="#FF2727"/>
<rect width="8.23067" height="1" transform="matrix(-1 0 0 1 148.13 151.796)" fill="white"/>
<path d="M148.13 153.796H139.899C139.908 154.207 139.974 154.424 140.162 154.796L147.874 154.783C148.053 154.453 148.103 154.232 148.13 153.796Z" fill="white"/>
<path d="M146.822 151.288H141.207C138.498 150.766 138.051 149.826 137.932 147.741C137.932 147.741 138.506 146.071 138.506 144.609C138.506 143.147 137.932 141.717 137.932 140.255V136.61C137.932 136.61 138.506 134.428 138.506 133.004C138.506 130.548 137.807 131.672 137.932 128.828C137.994 127.401 138.506 123.448 138.506 122.025C138.506 120.601 137.994 119.809 137.932 118.386C137.807 115.542 137.932 111.097 137.932 111.097C137.967 107.748 138.506 106.809 140.571 107.44C144.119 107.928 149.11 111.494 150.097 120.061C150.308 121.889 149.881 123.195 149.881 125.022C149.881 126.849 150.137 127.592 150.097 129.419C150.056 131.323 149.281 133.011 149.281 134.838C149.281 136.665 150.078 137.023 150.097 138.777C150.123 141.056 149.284 143.351 149.281 145.157C149.278 147.013 150.097 148.135 150.097 148.135C149.914 150.62 149.011 151.098 146.822 151.288Z" fill="#FF2727"/>
<line y1="-0.5" x2="6.84706" y2="-0.5" transform="matrix(-0.0253739 0.999678 0.999678 0.0253739 144.078 155.693)" stroke="black"/>
<ellipse cx="106.501" cy="65.8518" rx="8.48389" ry="10.7836" fill="#53C0FE"/>
<ellipse cx="105.834" cy="65.8018" rx="8.38389" ry="10.5336" fill="#2B0045"/>
<ellipse rx="8.48389" ry="10.7836" transform="matrix(-1 0 0 1 143.484 65.5836)" fill="#53C0FE"/>
<ellipse rx="8.38389" ry="10.5336" transform="matrix(-1 0 0 1 144.151 65.5336)" fill="#2B0045"/>
<path d="M124.548 84.6327C125.776 93.7072 128.444 95.7269 126.849 98.2784C125.255 100.83 122.306 98.4112 122.082 95.6381C121.898 93.3553 122.663 90.0204 125.083 92.4786C127.273 94.704 124.775 98.4704 123.815 94.86" stroke="#2B0045" stroke-width="2.5" stroke-linecap="round" stroke-linejoin="round"/>
</svg>
