<svg width="195" height="368" viewBox="0 0 195 368" fill="none" xmlns="http://www.w3.org/2000/svg">
<path fill-rule="evenodd" clip-rule="evenodd" d="M102.655 253.854L103.635 338.666C103.4 343.652 104.379 348.329 107.536 350.602L128.075 360.202C139.619 365.598 147.257 350.708 139.966 345.416L127.442 336.325L128.206 253.221L102.655 253.854Z" fill="#FF7B4F"/>
<path fill-rule="evenodd" clip-rule="evenodd" d="M92.8593 256.172L91.8793 340.984C92.1146 345.97 90.3719 349.374 87.215 351.647L71.2579 364.048C59.7035 369.421 53.9766 354.313 60.1302 347.734L68.8357 337.624L68.3266 254.521L92.8593 256.172Z" fill="#FF7B4F"/>
<path fill-rule="evenodd" clip-rule="evenodd" d="M68.6658 315.803C75.2369 315.298 85.6766 318.039 92.9674 315.803V339.384L66.8657 339.204L68.6658 333.084V315.803Z" fill="#EEDABF"/>
<path fill-rule="evenodd" clip-rule="evenodd" d="M127.619 315.501C121.048 314.996 110.609 317.737 103.318 315.501V339.082L129.42 338.902L127.619 332.782V315.501Z" fill="#EEDABF"/>
<path fill-rule="evenodd" clip-rule="evenodd" d="M131.32 197.152L128.326 318.78L102.879 320.318C100.898 286.73 98.9269 253.268 98.8706 219.806L98.2227 219.686C97.412 254.374 95.2202 287.489 92.6654 320.796L67.6455 320.287L67.167 196.643L131.32 197.152Z" fill="#24175C"/>
<path d="M89.7019 101.058H111.638C112.341 101.058 112.911 101.628 112.911 102.331V117.426C112.911 118.129 112.341 118.699 111.638 118.699H89.7019C88.9989 118.699 88.429 118.129 88.429 117.426V102.331C88.429 101.628 88.9989 101.058 89.7019 101.058Z" fill="#E95A29"/>
<path fill-rule="evenodd" clip-rule="evenodd" d="M141.713 47.0541C156.32 47.536 153.791 56.5312 143.513 69.3756C135.766 101.825 113.538 109.549 83.3893 103.938C66.2456 98.6611 58.4127 88.2117 58.5477 73.3358C53.1841 66.8162 51.064 53.3031 53.5073 48.1341C82.9093 36.66 112.311 25.6832 141.713 47.0541V47.0541Z" fill="#FF7B4F"/>
<path fill-rule="evenodd" clip-rule="evenodd" d="M139.772 53.8771C138.79 59.0904 138.387 74.8192 137.826 87.8493C138.323 98.9702 139.97 101.339 145.428 93.4128C153.469 76.9529 156.471 50.8709 150.87 30.0911C147.041 15.8837 123.061 4.70428 111.921 0.925471C80.3493 -2.3035 57.6053 21.5809 57.6053 21.5809C57.6053 21.5809 49.2466 23.2615 42.4009 19.5873C45.2489 28.3468 49.7908 28.6683 52.1723 29.3208C47.4982 37.8045 45.5141 53.8377 46.8677 59.0546C47.0864 60.0859 46.3964 77.674 49.8207 87.6428C53.2228 97.5466 58.7188 100.846 60.2924 99.7706C63.8817 91.6386 56.8562 53.9853 58.0025 54.0807C59.9509 53.9662 60.0215 49.9598 63.094 46.9526C73.795 55.7464 98.2773 51.319 113.5 39.8245C121.26 42.1175 121.633 45.7011 129.793 44.4069C134.545 47.457 132.525 52.3588 139.772 53.8771V53.8771Z" fill="#3F2631"/>
<path d="M128.001 58.1066C126.015 55.9311 123.319 54.8071 120.504 54.9807C117.689 55.1544 114.984 56.6116 112.981 59.0332C110.978 61.4547 109.84 64.6435 109.816 67.9013C109.793 71.1591 110.886 74.2206 112.856 76.4155C114.826 78.6103 117.512 79.7597 120.327 79.612C123.142 79.4644 125.856 78.0317 127.875 75.6276C129.894 73.2235 131.053 70.0439 131.099 66.7849C131.145 63.5259 130.074 60.453 128.12 58.239" fill="#FFF2CD"/>
<path d="M83.1237 57.2525C80.6572 55.6368 77.7606 55.1692 75.0681 55.952C72.3756 56.7349 70.1066 58.7045 68.7577 61.4295C67.4088 64.1546 67.0901 67.4133 67.8712 70.492C68.6524 73.5707 70.4697 76.2186 72.9255 77.8561C75.3812 79.4936 78.2752 79.9872 80.974 79.2289C83.6727 78.4706 85.9562 76.5222 87.3247 73.8102C88.6931 71.0981 89.035 67.8434 88.2754 64.7587C87.5158 61.6739 85.7166 59.0104 83.2718 57.3513" fill="#FFF2CD"/>
<path d="M97.0981 77.9403C96.0835 77.7778 95.0682 78.0561 94.2745 78.7145C93.4808 79.3729 92.9733 80.3576 92.8632 81.4531C92.7531 82.5486 93.0492 83.6656 93.6869 84.5596C94.3245 85.4536 95.2517 86.0517 96.2654 86.223C97.2791 86.3943 98.2967 86.1249 99.0955 85.4736C99.8943 84.8224 100.409 83.8425 100.527 82.7484C100.646 81.6542 100.358 80.5351 99.7263 79.6359C99.0951 78.7367 98.172 78.1308 97.1593 77.9508" fill="#3F2631"/>
<path d="M84.7655 92.0151C84.0603 92.0151 83.4927 92.5829 83.4927 93.288C83.4927 93.9932 84.2116 94.1245 84.7655 94.5609C93.8344 101.706 111.292 101.754 113.787 94.5609C114.033 94.116 113.396 91.6708 112.733 91.8927C105.537 94.3018 89.6649 93.5157 84.7655 92.0151Z" fill="#3F2631"/>
<path d="M70.2293 55.5336C73.7682 54.0227 79.3895 54.0145 82.8029 55.475C86.0499 56.8643 85.5105 54.4287 82.6252 52.2416C79.1135 49.5797 73.4916 50.1201 70.0502 52.2744C68.6422 53.2893 66.8394 57.5877 70.2293 55.5336V55.5336Z" fill="#3F2631"/>
<path d="M121.342 61.218C120.099 59.7973 118.413 59.0633 116.651 59.1767C114.89 59.2901 113.197 60.2417 111.944 61.8231C110.691 63.4046 109.979 65.487 109.964 67.6146C109.95 69.7421 110.634 71.7415 111.866 73.1748C113.099 74.6082 114.78 75.3589 116.541 75.2624C118.302 75.166 120 74.2304 121.263 72.6603C122.526 71.0903 123.251 69.0138 123.28 66.8855C123.309 64.7571 122.639 62.7504 121.416 61.3045" fill="#3F2631"/>
<path d="M77.8165 60.6376C76.3785 59.4151 74.6023 58.9371 72.8768 59.3084C71.1513 59.6796 69.6171 60.8698 68.6101 62.6184C67.6031 64.367 67.2052 66.5315 67.5037 68.6381C67.8022 70.7447 68.7727 72.6217 70.2027 73.8582C71.6327 75.0946 73.4057 75.5899 75.1335 75.2354C76.8614 74.881 78.4033 73.7058 79.4217 71.9671C80.4401 70.2283 80.8521 68.0677 80.5674 65.9583C80.2827 63.8489 79.3246 61.9626 77.9027 60.7122" fill="#3F2631"/>
<path fill-rule="evenodd" clip-rule="evenodd" d="M71.8504 149.356C72.2463 163.431 74.8042 195.082 62.1797 195.36C56.4443 196.584 32.0479 180.048 17.7717 167.279L27.4372 154.519L50.7866 169.385L51.9354 143.227L71.8504 149.356Z" fill="#FF7B4F"/>
<path fill-rule="evenodd" clip-rule="evenodd" d="M73.5963 112.04C59.1172 113.288 53.3458 130.781 49.6658 147.47L74.2179 146.848L73.5963 112.04Z" fill="#0D251E"/>
<path fill-rule="evenodd" clip-rule="evenodd" d="M130.491 112.782C123.612 110.882 122.77 110.255 115.599 109.7C108.244 118.242 95.9218 120.792 87.4935 109.859C78.4481 110.439 78.0105 110.899 71.9231 112.992C63.2243 135.583 54.7278 150.716 65.3898 157.611C66.3113 162.925 65.0594 193.359 65.8521 198.65L132.459 199.09C134.717 170.489 132.874 141.383 130.491 112.782Z" fill="#1B4538"/>
<path fill-rule="evenodd" clip-rule="evenodd" d="M129.874 146.135C129.539 160.212 127.118 191.874 139.744 192.097C145.485 193.296 169.809 176.655 184.03 163.824L174.309 151.106L151.025 166.073L149.763 139.92L129.874 146.135Z" fill="#FF7B4F"/>
<path fill-rule="evenodd" clip-rule="evenodd" d="M162.385 156.096C156.716 160.821 161.992 174.467 170.188 174.075L184.534 172.011C188.931 171.46 192.116 169.022 191.714 167.432C191.319 165.872 187.405 165.153 184.3 165.346C187.338 163.568 190.209 161.477 190.132 160.334C189.264 156.418 185.709 158.353 182.258 157.855C185.435 155.881 187.963 153.705 187.524 152.683C186.366 149.317 181.679 151.407 178.844 152.33C182.383 149.959 184.906 147.592 184.23 146.657C182.971 144.269 177.458 146.242 173.786 148.554C169.844 150.552 166.06 153.097 162.385 156.096V156.096Z" fill="#FF7B4F"/>
<path fill-rule="evenodd" clip-rule="evenodd" d="M129.573 112.002C144.052 113.25 149.512 130.432 152.26 147.121L128.951 146.81L129.573 112.002Z" fill="#0D251E"/>
<path fill-rule="evenodd" clip-rule="evenodd" d="M22.443 168.458C29.7916 169.138 35.7337 155.769 29.6704 150.24L18.0829 141.535C14.5895 138.809 10.6138 138.274 9.77162 139.68C8.9448 141.062 11.1979 144.342 13.5266 146.405C10.1232 145.508 6.61517 144.951 5.86004 145.812C3.69907 149.191 7.5782 150.343 9.66137 153.139C6.02081 152.282 2.69511 152.026 2.28128 153.059C0.713569 156.255 5.50294 158.101 8.15787 159.457C3.97992 158.624 0.522223 158.507 0.337933 159.646C-0.465176 162.223 4.82348 164.736 9.05315 165.705C13.2504 167.087 17.7245 167.972 22.443 168.458V168.458Z" fill="#FF7B4F"/>
<path fill-rule="evenodd" clip-rule="evenodd" d="M92.6974 332.962C82.2233 338.583 74.3274 343.129 68.5758 334.582C65.1558 341.819 59.7919 348.278 53.9948 354.563C52.6283 361.683 56.5453 364.399 60.8352 366.804C65.0547 367.581 68.7648 369.249 76.6763 363.564L95.3975 347.363L92.6974 332.962Z" fill="#363E49"/>
<path fill-rule="evenodd" clip-rule="evenodd" d="M103.254 332.687C114.366 336.909 122.782 340.399 127.383 331.181C131.708 337.916 137.86 343.629 144.42 349.115C146.693 355.998 143.16 359.197 139.216 362.135C135.132 363.45 131.668 365.582 123.089 360.966L102.434 347.316L103.254 332.687Z" fill="#363E49"/>
<path d="M113.978 55.3791C117.517 53.8681 123.138 53.8601 126.551 55.3205C129.798 56.7098 129.259 54.2743 126.373 52.0871C122.862 49.4252 117.24 49.9656 113.798 52.1199C112.391 53.1348 110.588 57.4331 113.978 55.3791V55.3791Z" fill="#3F2631"/>
</svg>
