<svg width="130" height="367" viewBox="0 0 130 367" fill="none" xmlns="http://www.w3.org/2000/svg">
<path fill-rule="evenodd" clip-rule="evenodd" d="M69.3093 251.517L70.2953 336.852C70.0586 341.869 71.0436 346.574 74.22 348.861L94.886 358.521C106.501 363.949 114.186 348.968 106.851 343.643L94.2494 334.496L95.0179 250.88L69.3093 251.517Z" fill="#1ED1FF"/>
<path fill-rule="evenodd" clip-rule="evenodd" d="M59.4527 253.849L58.4667 339.184C58.7034 344.201 56.9499 347.626 53.7735 349.913L37.7181 362.39C26.0925 367.796 20.3304 352.596 26.5219 345.975L35.281 335.803L34.7687 252.188L59.4527 253.849Z" fill="#1ED1FF"/>
<path fill-rule="evenodd" clip-rule="evenodd" d="M98.1498 194.465L101.223 260.55L68.5196 260.576L66.3879 217.006C64.7064 215.718 64.4231 215.908 63.7075 217.518L63.3142 260.55L31.04 260.038L33.6015 193.953L98.1498 194.465Z" fill="#E5BB84"/>
<path d="M56.7881 96.7539H78.8592C79.5665 96.7539 80.1399 97.3273 80.1399 98.0346V113.223C80.1399 113.93 79.5665 114.504 78.8592 114.504H56.7881C56.0808 114.504 55.5074 113.93 55.5074 113.223V98.0346C55.5074 97.3273 56.0808 96.7539 56.7881 96.7539Z" fill="#1EE2FF"/>
<path fill-rule="evenodd" clip-rule="evenodd" d="M109.119 42.4178C123.816 42.9025 121.271 51.9532 110.93 64.8768C103.135 97.5261 80.7707 105.298 50.436 99.652C33.1866 94.3428 25.3054 83.829 25.4413 68.8614C16.4654 60.8955 3.90134 43.2013 20.3698 43.5045C49.953 31.9596 79.5361 20.915 109.119 42.4178V42.4178Z" fill="#1ED1FF"/>
<path fill-rule="evenodd" clip-rule="evenodd" d="M111.47 42.8278C108.277 23.6077 98.4853 10.0896 80.2204 3.89406C65.0455 0.262374 46.2141 7.83001 32.5776 0.820251C31.8188 3.3881 30.5645 5.62572 32.5776 10.0414C29.6747 7.58444 26.7717 7.61761 23.8687 9.01693C23.5182 10.7199 26.5952 14.1368 28.9916 17.2135C24.7412 25.5831 20.7391 33.9839 20.2827 42.8278C20.9401 45.9273 21.4252 49.1989 24.8933 49.4876C26.8537 49.3724 28.5385 46.7758 30.0162 42.3156C34.1321 46.6477 38.1612 48.9847 41.7988 42.3156C48.5956 50.1199 55.5251 52.7467 62.8026 41.8033C72.5388 55.373 75.3604 39.9021 80.7327 35.1436C88.0647 41.6607 97.9594 55.0116 97.1259 39.7542C101.907 42.8232 106.689 47.5757 111.47 42.8278V42.8278Z" fill="#3F2631"/>
<path d="M82.7271 52.3352C79.9892 53.6456 78.1231 55.9407 77.5373 58.7179C76.9514 61.4951 77.6936 64.5283 79.6013 67.1533C81.5091 69.7783 84.427 71.7813 87.7161 72.7238C91.0053 73.6663 94.3978 73.4715 97.1509 72.1821C99.9041 70.8926 101.793 68.6135 102.406 65.8438C103.018 63.0741 102.302 60.0394 100.417 57.4041C98.5309 54.7688 95.6281 52.7476 92.3438 51.783C89.0595 50.8184 85.6613 50.989 82.8932 52.2574" fill="#FFECD2"/>
<path d="M33.3306 54.0465C30.7232 55.6004 29.0734 58.0556 28.7424 60.8745C28.4114 63.6935 29.4262 66.6466 31.5647 69.0874C33.7031 71.5281 36.791 73.2576 40.1522 73.8973C43.5134 74.5369 46.8742 74.0346 49.4987 72.5002C52.1232 70.9658 53.7976 68.5244 54.1554 65.7106C54.5132 62.8967 53.5252 59.9396 51.4077 57.4866C49.2902 55.0336 46.2157 53.2846 42.8573 52.6225C39.4989 51.9605 36.1303 52.4392 33.4889 53.954" fill="#FFECD2"/>
<path d="M64.2303 73.4942C63.2095 73.3307 62.1879 73.6108 61.3893 74.2732C60.5907 74.9357 60.0801 75.9264 59.9693 77.0287C59.8585 78.1309 60.1565 79.2548 60.7981 80.1543C61.4396 81.0538 62.3725 81.6556 63.3925 81.8279C64.4124 82.0003 65.4363 81.7292 66.2401 81.0739C67.0438 80.4187 67.5618 79.4327 67.6808 78.3318C67.7997 77.231 67.5099 76.1049 66.8748 75.2002C66.2396 74.2955 65.3108 73.6858 64.2918 73.5046" fill="#3F2631"/>
<path d="M49.7396 86.1165H78.94C79.6473 86.1165 80.2207 86.6899 80.2207 87.3972C80.2207 88.1045 79.6473 88.6779 78.94 88.6779H49.7396C49.0322 88.6779 48.4588 88.1045 48.4588 87.3972C48.4588 86.6899 49.0322 86.1165 49.7396 86.1165Z" fill="#3F2631"/>
<path d="M82.5531 50.4586C80.6057 50.9001 79.5474 51.4903 79.6098 52.1C79.6722 52.7097 80.8502 53.2892 82.886 53.7117C84.9218 54.1341 87.6493 54.3649 90.4714 54.3538C93.2935 54.3427 95.9802 54.0904 97.9433 53.6523C99.9067 53.2142 100.987 52.6259 100.947 52.0161C100.907 51.4064 99.7504 50.8249 97.7304 50.3989C95.7108 49.9729 92.9922 49.7372 90.1698 49.7433C87.3474 49.7494 84.6512 49.9969 82.6714 50.4315" fill="#3F2631"/>
<path d="M33.7408 51.5715C32.1048 52.013 31.2157 52.6031 31.2681 53.2128C31.3206 53.8225 32.3103 54.4019 34.0206 54.8244C35.7308 55.2468 38.0223 55.4778 40.3934 55.4668C42.7645 55.4557 45.022 55.2035 46.6717 54.7654C48.3213 54.3273 49.2287 53.739 49.1951 53.1293C49.1616 52.5195 48.19 51.938 46.4928 51.5121C44.7957 51.0862 42.5114 50.8505 40.14 50.8567C37.7686 50.8629 35.5034 51.1104 33.8403 51.5452" fill="#3F2631"/>
<path d="M81.0168 58.8143C79.3038 59.6341 78.1362 61.07 77.7697 62.8076C77.4031 64.5452 77.8675 66.4429 79.0611 68.0853C80.2547 69.7277 82.0803 70.9809 84.1382 71.5706C86.1961 72.1603 88.3187 72.0384 90.0412 71.2316C91.7637 70.4249 92.9459 68.999 93.3288 67.2661C93.7118 65.5332 93.2643 63.6344 92.0845 61.9856C90.9046 60.3368 89.0885 59.0723 87.0336 58.4688C84.9787 57.8652 82.8526 57.972 81.1207 58.7656" fill="#3F2631"/>
<path d="M32.643 59.1905C30.93 60.0103 29.7624 61.4462 29.3959 63.1838C29.0294 64.9214 29.4937 66.8192 30.6873 68.4615C31.8809 70.1039 33.7065 71.3571 35.7644 71.9468C37.8223 72.5365 39.9449 72.4146 41.6674 71.6078C43.3899 70.8011 44.5721 69.3752 44.955 67.6423C45.338 65.9094 44.8905 64.0107 43.7107 62.3619C42.5308 60.7131 40.7147 59.4485 38.6598 58.845C36.605 58.2415 34.4788 58.3482 32.7469 59.1418" fill="#3F2631"/>
<path fill-rule="evenodd" clip-rule="evenodd" d="M100.866 110.083C93.9448 108.171 89.5467 107.033 82.332 106.474C74.9315 115.069 62.5334 117.635 54.0532 106.634C44.9521 107.218 37.6654 108.188 28.7512 109.533L30.757 195.973L101.071 196.415L100.866 110.083Z" fill="#1B2F45"/>
<path fill-rule="evenodd" clip-rule="evenodd" d="M9.09092 143.772C5.04084 157.348 -5.68759 187.443 6.50961 191C11.765 193.684 39.7816 183.966 56.9816 175.274L50.9107 160.356L24.3467 168.723L30.042 143.001L9.09092 143.772Z" fill="#1ED1FF"/>
<path fill-rule="evenodd" clip-rule="evenodd" d="M29.8564 109.341C15.288 110.596 9.48107 128.197 5.77832 144.989L30.4818 144.364L29.8564 109.341Z" fill="#212A37"/>
<path fill-rule="evenodd" clip-rule="evenodd" d="M121.311 144.509C125.361 158.085 136.089 188.18 123.892 191.737C118.637 194.421 90.6202 184.703 73.4202 176.011L79.491 161.092L106.055 169.46L100.36 143.738L121.311 144.509Z" fill="#1ED1FF"/>
<path fill-rule="evenodd" clip-rule="evenodd" d="M100.214 109.81C114.782 111.065 120.276 128.354 123.041 145.146L99.5884 144.833L100.214 109.81Z" fill="#212A37"/>
<path fill-rule="evenodd" clip-rule="evenodd" d="M92.3866 162.781C99.1401 165.868 97.6293 180.511 89.5691 182.298L75.0969 184.091C70.6831 184.72 66.9457 183.196 66.9155 181.547C66.8858 179.927 70.4948 178.194 73.5601 177.56C70.141 176.638 66.8007 175.367 66.5732 174.237C66.3798 170.206 70.3421 171.143 73.5601 169.747C69.9543 168.671 66.924 167.229 67.0801 166.12C67.313 162.546 72.4166 163.334 75.4126 163.481C71.3496 162.115 68.2739 160.485 68.6835 159.399C69.2735 156.748 75.1472 157.204 79.3233 158.477C83.6784 159.373 88.0255 160.842 92.3866 162.781V162.781Z" fill="#1ED1FF"/>
<path fill-rule="evenodd" clip-rule="evenodd" d="M38.9608 163.088C32.2073 166.175 33.7182 180.818 41.7784 182.606L56.2505 184.399C60.6643 185.028 64.4017 183.504 64.432 181.854C64.4617 180.235 60.8527 178.501 57.7874 177.867C61.2065 176.945 64.5467 175.674 64.7742 174.544C64.9677 170.513 61.0053 171.451 57.7874 170.055C61.3931 168.978 64.4235 167.536 64.2673 166.428C64.0344 162.853 58.9308 163.642 55.9349 163.788C59.9979 162.422 63.0736 160.792 62.6639 159.706C62.074 157.055 56.2002 157.511 52.0241 158.784C47.669 159.68 43.3219 161.149 38.9608 163.088V163.088Z" fill="#1ED1FF"/>
<path fill-rule="evenodd" clip-rule="evenodd" d="M35.1105 313.847C41.722 313.339 52.2262 316.097 59.5619 313.847V337.574L33.2993 337.393L35.1105 331.235V313.847Z" fill="#EEDABF"/>
<path fill-rule="evenodd" clip-rule="evenodd" d="M59.2896 331.112C48.751 336.768 40.8064 341.342 35.0194 332.743C31.5783 340.024 26.1814 346.523 20.3485 352.847C18.9737 360.01 22.9148 362.743 27.2312 365.163C31.4766 365.945 35.2096 367.623 43.1698 361.903L62.0064 345.602L59.2896 331.112Z" fill="#363E49"/>
<path fill-rule="evenodd" clip-rule="evenodd" d="M94.4275 313.544C87.816 313.036 77.3118 315.794 69.9761 313.544V337.271L96.2387 337.09L94.4275 330.931V313.544Z" fill="#EEDABF"/>
<path fill-rule="evenodd" clip-rule="evenodd" d="M69.9124 330.835C81.0925 335.083 89.5609 338.595 94.1902 329.321C98.5419 336.097 104.732 341.845 111.332 347.364C113.62 354.29 110.064 357.509 106.096 360.466C101.987 361.788 98.5013 363.934 89.8698 359.289L69.0876 345.554L69.9124 330.835Z" fill="#363E49"/>
</svg>
