<svg width="195" height="381" viewBox="0 0 195 381" fill="none" xmlns="http://www.w3.org/2000/svg">
<path d="M118.791 58.756L70.6909 58.3568C75.3257 44.715 87.482 10.6967 95.6562 0.612854C103.515 10.8298 113.586 43.6875 118.791 58.756Z" fill="#CD0080"/>
<path fill-rule="evenodd" clip-rule="evenodd" d="M143.696 155.464C150.755 161.718 153.773 177.027 155.663 187.808L164.072 268.992C167.135 289.231 173.637 307.178 181.861 323.976L194.799 350.822C141.225 354.199 97.2033 358.004 44.4917 354.481C37.0526 353.959 27.7838 349.611 20.3447 348.234C28.7808 277.443 47.1321 217.559 64.1295 143.821C92.3813 126.804 123.609 137.098 143.696 155.464V155.464Z" fill="#CD0080"/>
<path d="M106.852 123.231H86.0245C85.7251 123.231 85.4824 123.474 85.4824 123.773V155.956C85.4824 156.255 85.7251 156.498 86.0245 156.498H106.852C107.151 156.498 107.394 156.255 107.394 155.956V123.773C107.394 123.474 107.151 123.231 106.852 123.231Z" fill="#648C88"/>
<path d="M160.982 58.2489H35.0681C34.3531 58.2489 33.7734 58.8286 33.7734 59.5436V136.42C33.7734 137.135 34.3531 137.714 35.0681 137.714H160.982C161.697 137.714 162.277 137.135 162.277 136.42V59.5436C162.277 58.8286 161.697 58.2489 160.982 58.2489Z" fill="#648C88"/>
<path d="M140.072 58.0428H34.8186C34.0988 58.0428 33.5154 58.6263 33.5154 59.3461V136.732C33.5154 137.451 34.0988 138.035 34.8186 138.035H140.072C140.792 138.035 141.376 137.451 141.376 136.732V59.3461C141.376 58.6263 140.792 58.0428 140.072 58.0428Z" fill="#A2CCC8"/>
<path d="M46.9125 68.4341H120.829C121.336 68.4341 121.745 68.8423 121.745 69.3494V123.695C121.745 124.202 121.336 124.61 120.829 124.61H46.9125C46.4055 124.61 45.9973 124.202 45.9973 123.695V69.3494C45.9973 68.8423 46.4055 68.4341 46.9125 68.4341Z" fill="#1B2F45"/>
<path d="M112.799 127.849H93.1868C92.6492 127.849 92.2134 128.285 92.2134 128.823V131.186C92.2134 131.724 92.6492 132.16 93.1868 132.16H112.799C113.337 132.16 113.772 131.724 113.772 131.186V128.823C113.772 128.285 113.337 127.849 112.799 127.849Z" fill="#1B2F45"/>
<path d="M120.498 127.805H116.76C116.223 127.805 115.787 128.241 115.787 128.779V131.142C115.787 131.68 116.223 132.116 116.76 132.116H120.498C121.036 132.116 121.472 131.68 121.472 131.142V128.779C121.472 128.241 121.036 127.805 120.498 127.805Z" fill="#1B2F45"/>
<path d="M66.9114 97.6173V78.3658C66.9114 77.5653 66.2624 76.9163 65.4618 76.9163H61.9418C61.1412 76.9163 60.4923 77.5653 60.4923 78.3658V97.6173C60.4923 98.4179 61.1412 99.0669 61.9418 99.0669H65.4618C66.2624 99.0669 66.9114 98.4179 66.9114 97.6173Z" fill="#FFE575"/>
<path d="M104.409 97.5815V78.3301C104.409 77.5295 103.76 76.8805 102.959 76.8805H99.4394C98.6388 76.8805 97.9898 77.5295 97.9898 78.3301V97.5815C97.9898 98.3821 98.6388 99.0312 99.4394 99.0312H102.959C103.76 99.0312 104.409 98.3821 104.409 97.5815Z" fill="#FFE575"/>
<path d="M71.3246 106.003H67.8735C67.073 106.003 66.4238 106.652 66.4238 107.453V110.973C66.4238 111.773 67.073 112.422 67.8735 112.422H71.3246C72.1252 112.422 72.7742 111.773 72.7742 110.973V107.453C72.7742 106.652 72.1252 106.003 71.3246 106.003Z" fill="#FFE575"/>
<path d="M95.1686 111.414H90.796C89.9954 111.414 89.3464 112.063 89.3464 112.864V116.384C89.3464 117.185 89.9954 117.834 90.796 117.834H95.1686C95.9692 117.834 96.6182 117.185 96.6182 116.384V112.864C96.6182 112.063 95.9692 111.414 95.1686 111.414Z" fill="#FFE575"/>
<path d="M90.3832 111.414H73.2493C72.4488 111.414 71.7998 112.063 71.7998 112.864V116.384C71.7998 117.185 72.4488 117.834 73.2493 117.834H90.3832C91.1838 117.834 91.833 117.185 91.833 116.384V112.864C91.833 112.063 91.1838 111.414 90.3832 111.414Z" fill="#FFE575"/>
<path fill-rule="evenodd" clip-rule="evenodd" d="M97.7949 214.818L98.6843 353.993C98.4708 358.519 99.3592 362.763 102.224 364.825L120.864 373.537C131.34 378.434 138.272 364.921 131.655 360.119L120.29 351.868L113.664 213.329L97.7949 214.818Z" fill="#648C88"/>
<path fill-rule="evenodd" clip-rule="evenodd" d="M89.82 216.006L88.016 356.097C88.2295 360.622 86.6478 363.711 83.7829 365.774L69.3019 377.027C58.8162 381.903 53.619 368.194 59.2035 362.222L67.1037 353.048L77.6196 214.508L89.82 216.006Z" fill="#648C88"/>
<path fill-rule="evenodd" clip-rule="evenodd" d="M65.5563 174.787C65.9154 187.56 68.2368 216.284 56.78 216.536C51.5751 217.647 29.4352 202.64 16.4795 191.052L25.251 179.472L46.4407 192.963L47.4832 169.225L65.5563 174.787Z" fill="#648C88"/>
<path fill-rule="evenodd" clip-rule="evenodd" d="M126.257 145.579C120.015 143.854 116.048 142.828 109.541 142.324C102.866 150.076 91.6835 152.39 84.0348 142.469C75.8261 142.995 69.2539 143.87 61.2139 145.083C62.6842 171.883 64.341 198.683 74.6595 225.483L117.582 226.499C121.971 199.525 124.308 172.552 126.257 145.579V145.579Z" fill="#1B2F45"/>
<path fill-rule="evenodd" clip-rule="evenodd" d="M64.9542 143.722C51.8143 144.855 46.5768 160.73 43.2371 175.875L65.5183 175.311L64.9542 143.722Z" fill="#212A37"/>
<path fill-rule="evenodd" clip-rule="evenodd" d="M97.0123 203.336L100.606 172.297L73.4883 171.97L79.3693 203.336C84.8686 204.671 90.6444 205.04 97.0123 203.336Z" fill="#DD0000"/>
<path d="M76.6035 171.514C73.9615 171.685 72.5201 171.914 72.5924 172.151C72.6647 172.387 74.2449 172.613 76.9897 172.778C79.7338 172.943 83.4211 173.034 87.2507 173.032C91.0803 173.031 94.743 172.935 97.4429 172.767C100.142 172.6 101.661 172.373 101.668 172.136C101.676 171.899 100.172 171.672 97.4837 171.503C94.7951 171.335 91.139 171.239 87.3096 171.236C83.4801 171.233 79.7866 171.323 77.0313 171.488" fill="white"/>
<path fill-rule="evenodd" clip-rule="evenodd" d="M140.629 176.115C140.933 188.89 143.13 217.623 131.672 217.825C126.462 218.914 104.387 203.812 91.4819 192.168L100.303 180.626L121.435 194.208L122.58 170.475L140.629 176.115Z" fill="#648C88"/>
<path fill-rule="evenodd" clip-rule="evenodd" d="M111.125 185.154C116.27 189.443 111.482 201.826 104.044 201.47L91.0251 199.597C87.035 199.098 84.1443 196.885 84.5092 195.442C84.8675 194.026 88.4193 193.373 91.2371 193.549C88.4805 191.935 85.8753 190.037 85.9454 189C86.7331 185.446 89.9588 187.202 93.0902 186.751C90.2078 184.959 87.9129 182.985 88.3117 182.057C89.3623 179.002 93.6163 180.899 96.1886 181.737C92.977 179.585 90.6872 177.437 91.3014 176.588C92.4436 174.421 97.4467 176.212 100.779 178.31C104.356 180.123 107.79 182.432 111.125 185.154V185.154Z" fill="#648C88"/>
<path fill-rule="evenodd" clip-rule="evenodd" d="M122.01 145.518C135.15 146.65 140.105 162.243 142.599 177.388L121.446 177.106L122.01 145.518Z" fill="#212A37"/>
<path fill-rule="evenodd" clip-rule="evenodd" d="M20.7184 195.111C27.3873 195.729 32.78 183.596 27.2775 178.579L16.7617 170.678C13.5913 168.205 9.98343 167.719 9.21921 168.996C8.46883 170.249 10.5136 173.226 12.6268 175.098C9.53837 174.284 6.3547 173.778 5.6694 174.56C3.70832 177.626 7.22862 178.672 9.11919 181.209C5.81532 180.432 2.79724 180.2 2.42167 181.137C0.999047 184.037 5.3453 185.712 7.75467 186.942C3.96318 186.187 0.825297 186.081 0.658014 187.114C-0.07076 189.453 4.7287 191.734 8.56715 192.613C12.3762 193.867 16.4363 194.67 20.7184 195.111V195.111Z" fill="#648C88"/>
<path fill-rule="evenodd" clip-rule="evenodd" d="M66.9492 333.245C72.9125 332.786 82.3866 335.274 89.0031 333.245V354.645L65.3157 354.482L66.9492 348.927V333.245Z" fill="#EEDABF"/>
<path fill-rule="evenodd" clip-rule="evenodd" d="M88.758 348.817C79.2527 353.918 72.0872 358.044 66.8675 350.287C63.7638 356.854 58.8961 362.716 53.6352 368.42C52.3951 374.881 55.9499 377.346 59.8429 379.529C63.6722 380.234 67.039 381.747 74.2188 376.588L91.2084 361.886L88.758 348.817Z" fill="#363E49"/>
<path fill-rule="evenodd" clip-rule="evenodd" d="M120.45 332.971C114.487 332.513 105.013 335 98.3962 332.971V354.371L122.084 354.208L120.45 348.654V332.971Z" fill="#EEDABF"/>
<path fill-rule="evenodd" clip-rule="evenodd" d="M98.3384 348.567C108.422 352.399 116.06 355.566 120.236 347.201C124.161 353.313 129.744 358.497 135.697 363.475C137.76 369.722 134.553 372.625 130.974 375.292C127.268 376.485 124.124 378.42 116.339 374.231L97.5945 361.843L98.3384 348.567Z" fill="#363E49"/>
<path fill-rule="evenodd" clip-rule="evenodd" d="M107.778 143.821C103.872 149.427 95.9426 155.033 89.842 160.639C104.013 155.464 123.584 150.289 123.965 145.114C123.837 142.383 109.956 140.776 107.778 143.821V143.821Z" fill="#DF3DA3"/>
<path fill-rule="evenodd" clip-rule="evenodd" d="M83.3073 143.352C87.2134 148.958 95.1431 154.564 101.244 160.17C87.0729 154.995 67.5015 149.82 67.1208 144.645C67.2489 141.914 81.1293 140.307 83.3073 143.352V143.352Z" fill="#DF3DA3"/>
<path d="M98.1505 152.899C99.1096 153.611 99.6308 154.563 99.6001 155.547C99.5694 156.53 98.9891 157.465 97.9865 158.147C96.9838 158.829 95.6404 159.201 94.2503 159.183C92.8602 159.166 91.5367 158.759 90.5696 158.052C89.6024 157.345 89.0705 156.396 89.0901 155.412C89.1098 154.428 89.6794 153.49 90.6744 152.803C91.6694 152.115 93.0086 151.735 94.3988 151.745C95.7891 151.755 97.1171 152.154 98.0921 152.856" fill="#DF3DA3"/>
<path fill-rule="evenodd" clip-rule="evenodd" d="M116.203 138.969C121.408 146.304 130.034 152.338 133.669 165.168C137.589 186.299 139.216 207.43 140.137 228.562C141.894 254.42 145.066 287.876 152.428 310.715C157.41 321.748 158.21 344.639 156.159 359.503C166.631 360.015 190.171 356.263 194.475 350.822C184.234 331.334 175.457 310.359 166.113 284.776C158.632 235.123 159.895 174.159 145.151 156.596C137.567 148.979 126.789 142.298 116.203 138.969V138.969Z" fill="#DF3DA3"/>
</svg>
