<?xml version="1.0" encoding="UTF-8" standalone="no"?>
<!-- Created with Inkscape (http://www.inkscape.org/) -->

<svg
   xmlns:dc="http://purl.org/dc/elements/1.1/"
   xmlns:cc="http://creativecommons.org/ns#"
   xmlns:rdf="http://www.w3.org/1999/02/22-rdf-syntax-ns#"
   xmlns:svg="http://www.w3.org/2000/svg"
   xmlns="http://www.w3.org/2000/svg"
   xmlns:sodipodi="http://sodipodi.sourceforge.net/DTD/sodipodi-0.dtd"
   xmlns:inkscape="http://www.inkscape.org/namespaces/inkscape"
   width="210mm"
   height="297mm"
   viewBox="0 0 744.09448819 1052.3622047"
   id="svg5026"
   version="1.1"
   inkscape:version="0.91 r13725"
   sodipodi:docname="room.svg">
  <defs
     id="defs5028" />
  <sodipodi:namedview
     id="base"
     pagecolor="#ffffff"
     bordercolor="#666666"
     borderopacity="1.0"
     inkscape:pageopacity="0.0"
     inkscape:pageshadow="2"
     inkscape:zoom="0.35"
     inkscape:cx="-42.142857"
     inkscape:cy="520"
     inkscape:document-units="px"
     inkscape:current-layer="layer1"
     showgrid="false"
     inkscape:window-width="1280"
     inkscape:window-height="690"
     inkscape:window-x="0"
     inkscape:window-y="1"
     inkscape:window-maximized="1" />
  <metadata
     id="metadata5031">
    <rdf:RDF>
      <cc:Work
         rdf:about="">
        <dc:format>image/svg+xml</dc:format>
        <dc:type
           rdf:resource="http://purl.org/dc/dcmitype/StillImage" />
        <dc:title></dc:title>
      </cc:Work>
    </rdf:RDF>
  </metadata>
  <g
     inkscape:label="Layer 1"
     inkscape:groupmode="layer"
     id="layer1">
    <g
       transform="translate(-1660.1173,-316.68082)"
       id="g4673-0-4-4">
      <path
         inkscape:connector-curvature="0"
         style="opacity:1;fill:#8360b3;fill-opacity:1;stroke:none;stroke-width:3;stroke-linecap:round;stroke-linejoin:miter;stroke-miterlimit:4;stroke-dasharray:none;stroke-dashoffset:0;stroke-opacity:1"
         d="m 1707.3505,644.11884 658.5857,0 c 6.5297,0 11.7866,5.20051 11.7866,11.66033 l 0,454.75313 c 0,6.4599 -5.2569,11.6604 -11.7866,11.6604 l -658.5857,0 c -6.5299,0 -11.7868,-5.2005 -11.7868,-11.6604 l 0,-454.75313 c 0,-6.45982 5.2569,-11.66033 11.7868,-11.66033 z"
         id="rect4350-9-9-7" />
      <path
         inkscape:connector-curvature="0"
         style="opacity:1;fill:#8360b3;fill-opacity:1;stroke:none;stroke-width:3;stroke-linecap:round;stroke-linejoin:miter;stroke-miterlimit:4;stroke-dasharray:none;stroke-dashoffset:0;stroke-opacity:1"
         d="m 2104.2699,851.74365 222.2355,0 c 2.9915,0 5.3998,2.40829 5.3998,5.39976 l 0,80.41434 c 0,2.99147 -2.4083,5.39976 -5.3998,5.39976 l -222.2355,0 c -2.9915,0 -5.3998,-2.40829 -5.3998,-5.39976 l 0,-80.41434 c 0,-2.99147 2.4083,-5.39976 5.3998,-5.39976 z"
         id="rect4350-09-4-0-2" />
    </g>
    <path
       style="opacity:1;fill:#aa8fce;fill-opacity:1;stroke:none;stroke-width:3;stroke-linecap:round;stroke-linejoin:miter;stroke-miterlimit:4;stroke-dasharray:none;stroke-dashoffset:0;stroke-opacity:1"
       d="m 135.8379,332.51802 485.1982,0 c 3.2382,0 5.845,2.59252 5.845,5.81283 l 0,99.3956 c -91.8096,-0.12151 -413.8925,0.58042 -496.888,0 l 0,-99.3956 c 0,-3.22031 2.6068,-5.81283 5.8448,-5.81283 z"
       id="rect4350-0-9-0-7"
       inkscape:connector-curvature="0"
       sodipodi:nodetypes="sssccss"
       inkscape:export-filename="/Users/doyunglee/Desktop/Game Jame/partyhouse.png"
       inkscape:export-xdpi="90"
       inkscape:export-ydpi="90" />
    <path
       style="opacity:1;fill:#aa8fce;fill-opacity:1;stroke:none;stroke-width:3;stroke-linecap:round;stroke-linejoin:miter;stroke-miterlimit:4;stroke-dasharray:none;stroke-dashoffset:0;stroke-opacity:1"
       d="m 668.1895,463.72479 c 3.1708,0 5.7234,2.55268 5.7234,5.72348 l 0,85.23513 c -15.3144,0.54449 -30.3516,0.0287 -48.1349,0 l 0,-91.27268 c 10.9552,0.0515 32.0394,0.31407 42.4115,0.31407 z"
       id="rect4350-0-9-7-2-7-3"
       inkscape:connector-curvature="0"
       sodipodi:nodetypes="cscccc"
       inkscape:export-filename="/Users/doyunglee/Desktop/Game Jame/partyhouse.png"
       inkscape:export-xdpi="90"
       inkscape:export-ydpi="90" />
    <path
       inkscape:connector-curvature="0"
       style="opacity:1;fill:#3b2353;fill-opacity:1;stroke:none;stroke-width:3;stroke-linecap:round;stroke-linejoin:miter;stroke-miterlimit:4;stroke-dasharray:none;stroke-dashoffset:0;stroke-opacity:1"
       d="m -79.876899,201.13424 c -1.3146,0 -2.3731,1.05839 -2.3731,2.37305 l 0,686.2813 c 0,1.3147 1.0585,2.373 2.3731,2.373 l 919.753899,0 c 1.3146,0 2.373,-1.0583 2.373,-2.373 l 0,-686.2813 c 0,-1.31466 -1.0584,-2.37305 -2.373,-2.37305 l -919.753899,0 z m 217.246099,132.60938 482.5332,0 c 3.2204,0 5.8125,2.59219 5.8125,5.8125 l 0,49.83789 0,49.55859 0,85.5293 0.047,0 0,-61.0957 c 10.9552,0.0515 32.04,0.31445 42.4121,0.31445 3.1708,0 5.7227,2.55186 5.7227,5.72266 l 0,60.45703 0,24.7793 0,55.63671 c 0,2.99147 -2.4069,5.39844 -5.3984,5.39844 l -42.7832,0 0,106.6973 c 0,4.7303 -3.8089,8.5391 -8.5391,8.5391 l -477.082,0 c -4.7303,0 -8.5371,-3.8088 -8.5371,-8.5391 l 0,-283.43949 0,-49.55859 0,-49.83789 c 0,-3.22031 2.5922,-5.8125 5.8125,-5.8125 z"
       id="rect4348-6-4" />
  </g>
</svg>
