<svg width="87" height="108" viewBox="0 0 87 108" fill="none" xmlns="http://www.w3.org/2000/svg">
<path d="M64.3048 56.027C75.1262 52.6731 81.3427 50.1676 82.3406 46.6361C83.0199 44.2322 79.0614 43.953 79.0614 43.953L77.4218 40.5984C80.1545 39.2569 85.4886 36.0372 84.964 33.8907C84.4393 31.7442 82.122 29.866 81.0289 29.1953C76.438 27.8537 69.8795 22.4882 64.3048 15.7805C58.7302 9.07274 57.0906 -1.32423 33.8082 3.03581C10.5259 7.39585 1.99988 19.1343 2 34.5621C2.00021 60.1673 14.3611 76.6207 24.6265 84.8703C29.2174 88.5596 32.4966 100.298 33.8083 106L68.2995 98.9567C65.4575 94.9321 61.0851 86.9496 72.8903 81.8517C86.2756 76.0714 81.0289 66.4239 81.0289 64.0763C81.0289 61.7287 83.7343 62.7347 82.9964 59.7162C82.2586 56.6977 70.5354 62.7347 64.3048 56.027Z" fill="#AA8FCE" stroke="#6E378B" stroke-width="3" stroke-linecap="round" stroke-linejoin="round"/>
</svg>
