<svg width="165" height="92" viewBox="0 0 165 92" fill="none" xmlns="http://www.w3.org/2000/svg">
<path d="M132.556 15.0416C140.476 23.6649 144.78 35.1928 144.527 47.1015C144.273 59.0101 139.481 70.3293 131.201 78.581C122.922 86.8326 111.828 91.3443 100.348 91.1285C88.8693 90.9126 77.9403 85.9868 69.954 77.4293C61.9676 68.8718 57.5748 57.38 57.737 45.4696C57.8993 33.5592 62.6035 22.2008 70.8197 13.8809C79.036 5.56099 90.0949 0.95759 101.575 1.07843C113.056 1.19927 124.022 6.03449 132.074 14.5256" fill="#46A0F2"/>
<path d="M125.382 29.0355C121.148 26.262 116.176 25.4593 111.555 26.8031C106.933 28.1469 103.038 31.5275 100.723 36.2052C98.4076 40.8828 97.8604 46.4762 99.2012 51.7608C100.542 57.0454 103.661 61.5905 107.877 64.4012C112.092 67.212 117.06 68.0593 121.692 66.7577C126.324 65.4561 130.244 62.1116 132.593 57.4564C134.942 52.8012 135.529 47.2147 134.225 41.9197C132.921 36.6248 129.833 32.0528 125.636 29.2049" fill="#FFECD2"/>
<path d="M123.812 30.1902C120.287 27.1939 115.934 26.0224 111.705 26.9323C107.476 27.8423 103.715 30.7594 101.247 35.0452C98.779 39.3309 97.804 44.6361 98.5355 49.7993C99.2671 54.9624 101.646 59.5628 105.15 62.5934C108.655 65.624 113.001 66.8378 117.236 65.969C121.471 65.1003 125.25 62.2198 127.746 57.9582C130.242 53.6966 131.252 48.4011 130.554 43.231C129.856 38.0609 127.508 33.4376 124.023 30.373" fill="#3F2631"/>
<path fill-rule="evenodd" clip-rule="evenodd" d="M69.3515 33.249L0.572998 54.8386L71.5105 65.0167C77.0622 63.1662 82.1615 60.6372 84.4643 53.9134C83.7536 44.6214 77.4149 35.9887 69.3515 33.249Z" fill="#F24664"/>
<path fill-rule="evenodd" clip-rule="evenodd" d="M114.844 22.6084C125.968 17.4462 136.269 11.8391 140.289 0.864441C141.759 4.61679 139.672 13.0326 136.125 18.753C147.759 18.6829 156.052 13.1938 164.346 4.25712C160.896 14.7047 154.198 26.2636 135.663 32.6321C129.813 25.7741 124.394 22.0649 114.844 22.6084Z" fill="#235FB4"/>
</svg>
