<svg width="122" height="158" viewBox="0 0 122 158" fill="none" xmlns="http://www.w3.org/2000/svg">
<path fill-rule="evenodd" clip-rule="evenodd" d="M80.1706 69.7991C96.7284 80.9732 99.4066 104.635 94.3066 122.761C84.2902 148.453 61.4105 161.135 34.6284 156.15C19.3991 151.463 10.6499 145.091 4.05364 131.428C-0.736909 118.127 -3.99386 77.655 18.3814 69.4154C40.9181 59.6703 54.9475 57.9786 80.1706 69.7991Z" fill="#FFECD2"/>
<path fill-rule="evenodd" clip-rule="evenodd" d="M81.9611 101.338C83.0714 106.691 83.0633 114.906 81.0976 124.077C70.8572 152.007 56.7086 153.72 29.9265 148.735C19.3442 146.241 11.2985 135.186 9.42602 126.028C8.14536 119.138 6.0738 107.006 7.63486 100.283C12.0379 80.0155 76.8865 76.9806 81.9611 101.338Z" fill="#F2AD46"/>
<path fill-rule="evenodd" clip-rule="evenodd" d="M54.9814 75.8396C57.5272 55.3772 61.5714 36.1726 76.9814 19.2684C82.5871 13.7088 88.3333 8.35973 95.3147 4.86363C122.789 -5.24709 127.916 14.2793 112.6 27.1255L98.9814 38.9111C86.3894 50.3491 74.5185 63.7092 65.9813 80.5539L54.9814 75.8396Z" fill="#FFECD2"/>
<path fill-rule="evenodd" clip-rule="evenodd" d="M23.389 86.2455C15.3277 69.2193 9.03822 52.4288 12.64 31.8443C14.2392 24.8109 16.0499 17.8711 19.7205 11.7551C35.9536 -9.50101 49.473 3.04471 43.9558 20.4537L39.2276 36.2138C35.1208 51.2027 32.5119 67.3205 34.1807 84.4921L23.389 86.2455Z" fill="#FFECD2"/>
<path fill-rule="evenodd" clip-rule="evenodd" d="M23.1553 67.4805C20.2577 59.436 17.9972 51.503 19.2917 41.7774C19.8666 38.4544 20.5175 35.1755 21.8367 32.2859C27.6713 22.243 32.5307 28.1705 30.5476 36.3957L28.8481 43.8419C27.372 50.9237 26.4343 58.5389 27.0341 66.652L23.1553 67.4805Z" fill="#3F2631"/>
<path fill-rule="evenodd" clip-rule="evenodd" d="M63.6655 64.2521C64.6448 55.758 66.145 47.6468 71.6268 39.5096C73.6184 36.7882 75.6587 34.1401 78.1246 32.1377C87.8145 25.7339 89.5335 33.2035 84.1017 39.6906L79.2702 45.6059C74.8008 51.294 70.5765 57.6992 67.5084 65.2337L63.6655 64.2521Z" fill="#3F2631"/>
<path d="M29.1409 97.7171C26.1214 95.7391 22.5754 95.1666 19.2792 96.1249C15.983 97.0833 13.2052 99.4945 11.554 102.831C9.90268 106.167 9.51248 110.156 10.4687 113.925C11.425 117.694 13.6498 120.935 16.6561 122.94C19.6625 124.945 23.2054 125.549 26.5093 124.621C29.8131 123.692 32.6086 121.307 34.2838 117.987C35.9591 114.667 36.3776 110.683 35.4477 106.906C34.5178 103.13 32.3152 99.8691 29.3222 97.838" fill="#FFECD2"/>
<path d="M28.0961 99.0806C25.5824 96.9435 22.4775 96.1081 19.4613 96.757C16.4451 97.406 13.7633 99.4865 12.003 102.543C10.2426 105.6 9.54723 109.383 10.069 113.066C10.5907 116.748 12.2872 120.029 14.7868 122.191C17.2865 124.352 20.3858 125.218 23.4061 124.598C26.4265 123.979 29.1219 121.924 30.9022 118.885C32.6824 115.846 33.4026 112.069 32.9049 108.381C32.4072 104.694 30.7323 101.397 28.2468 99.211" fill="#3F2631"/>
<path d="M39.6231 124.587C37.9365 124.454 35.3565 124.748 34.407 126.032C33.5059 129.852 37.628 133.421 39.3203 133.675C41.3344 133.67 45.3009 129.555 44.419 126.113C43.5211 124.841 41.2608 124.743 39.7044 124.594" fill="#3F2631"/>
<path d="M64.7884 98.1354C61.7689 96.1574 58.2229 95.5849 54.9267 96.5433C51.6305 97.5017 48.8527 99.9128 47.2014 103.249C45.5501 106.585 45.1599 110.574 46.1162 114.343C47.0725 118.112 49.2973 121.354 52.3036 123.358C55.3099 125.363 58.8529 125.967 62.1567 125.039C65.4605 124.111 68.256 121.725 69.9313 118.405C71.6065 115.085 72.0251 111.101 71.0952 107.325C70.1652 103.548 67.9627 100.287 64.9697 98.2563" fill="#FFECD2"/>
<path d="M63.7433 99.4988C61.2296 97.3617 58.1247 96.5263 55.1085 97.1752C52.0923 97.8242 49.4104 99.9047 47.6501 102.961C45.8897 106.018 45.1943 109.802 45.7161 113.484C46.2378 117.166 47.9343 120.447 50.434 122.609C52.9337 124.77 56.0329 125.636 59.0533 125.016C62.0737 124.397 64.7691 122.342 66.5494 119.303C68.3297 116.264 69.0498 112.487 68.5521 108.8C68.0544 105.112 66.3795 101.815 63.894 99.6292" fill="#3F2631"/>
<path d="M47.1898 139.938L40.6662 132.636C40.2501 132.17 39.5353 132.13 39.0696 132.546C38.6039 132.962 38.5636 133.677 38.9797 134.142L45.5033 141.445C45.9194 141.911 46.6341 141.951 47.0998 141.535C47.5656 141.119 47.6058 140.404 47.1898 139.938Z" fill="#3F2631"/>
<path d="M32.4099 139.464L38.9337 132.161C39.3497 131.696 40.0646 131.655 40.5303 132.071C40.996 132.487 41.0363 133.202 40.6202 133.668L34.0964 140.97C33.6804 141.436 32.9656 141.476 32.4999 141.06C32.0342 140.644 31.9939 139.93 32.4099 139.464Z" fill="#3F2631"/>
</svg>
