<svg width="112" height="106" viewBox="0 0 112 106" fill="none" xmlns="http://www.w3.org/2000/svg">
<path fill-rule="evenodd" clip-rule="evenodd" d="M99.7132 47.0541C114.32 47.536 111.791 56.5312 101.513 69.3756C93.7658 101.825 71.5382 109.549 41.3893 103.938C24.2456 98.6612 16.4127 88.2118 16.5477 73.3358C11.1841 66.8162 9.06398 53.3031 11.5073 48.1341C40.9093 36.66 70.3112 25.6831 99.7132 47.0541Z" fill="#FF7B4F"/>
<path fill-rule="evenodd" clip-rule="evenodd" d="M97.7719 53.8771C96.7905 59.0904 96.3868 74.8192 95.8255 87.8493C96.3226 98.9702 97.9697 101.339 103.428 93.4128C111.469 76.9529 114.471 50.8709 108.87 30.0911C105.041 15.8837 81.0614 4.70428 69.9214 0.925471C38.3493 -2.3035 15.6053 21.5809 15.6053 21.5809C15.6053 21.5809 7.24659 23.2615 0.400879 19.5873C3.24891 28.3468 7.79083 28.6683 10.1723 29.3208C5.49816 37.8045 3.51412 53.8377 4.86769 59.0546C5.08645 60.0859 4.39639 77.674 7.82073 87.6428C11.2228 97.5466 16.7188 100.846 18.2924 99.7706C21.8817 91.6386 14.8562 53.9853 16.0025 54.0807C17.9509 53.9663 18.0215 49.9598 21.0939 46.9526C31.795 55.7464 56.2773 51.319 71.4998 39.8245C79.2595 42.1175 79.6329 45.7011 87.7926 44.4069C92.5446 47.457 90.525 52.3588 97.7719 53.8771Z" fill="#3F2631"/>
<path d="M86.0012 58.1066C84.0152 55.9311 81.3196 54.8071 78.5044 54.9807C75.6893 55.1544 72.984 56.6115 70.9809 59.0331C68.9778 61.4547 67.84 64.6435 67.8166 67.9013C67.7932 71.1591 68.8861 74.2206 70.8562 76.4155C72.8262 78.6103 75.5127 79.7597 78.3277 79.612C81.1426 79.4644 83.8566 78.0317 85.8755 75.6276C87.8943 73.2235 89.0536 70.0439 89.0994 66.7849C89.1453 63.5259 88.0739 60.453 86.12 58.2389" fill="#FFF2CD"/>
<path d="M41.1237 57.2525C38.6572 55.6368 35.7606 55.1692 33.0681 55.952C30.3756 56.7349 28.1065 58.7045 26.7577 61.4296C25.4088 64.1547 25.0901 67.4133 25.8712 70.492C26.6524 73.5707 28.4697 76.2186 30.9255 77.8561C33.3812 79.4936 36.2752 79.9872 38.9739 79.2289C41.6727 78.4706 43.9562 76.5222 45.3247 73.8102C46.6931 71.0981 47.035 67.8434 46.2754 64.7587C45.5158 61.6739 43.7166 59.0104 41.2718 57.3513" fill="#FFF2CD"/>
<path d="M55.0981 77.9403C54.0835 77.7778 53.0682 78.0561 52.2745 78.7145C51.4808 79.3729 50.9733 80.3576 50.8632 81.4531C50.7531 82.5486 51.0492 83.6656 51.6869 84.5596C52.3245 85.4536 53.2517 86.0517 54.2654 86.223C55.2791 86.3943 56.2967 86.1249 57.0955 85.4736C57.8943 84.8224 58.4092 83.8425 58.5275 82.7484C58.6457 81.6542 58.3576 80.5351 57.7263 79.6359C57.0951 78.7367 56.172 78.1308 55.1593 77.9508" fill="#3F2631"/>
<path d="M42.7655 92.0151C42.0603 92.0151 41.4927 92.5829 41.4927 93.288C41.4927 93.9932 42.2116 94.1245 42.7655 94.5609C51.8344 101.706 69.2918 101.754 71.7871 94.5609C72.0335 94.116 71.3959 91.6708 70.7331 91.8927C63.5369 94.3018 47.6649 93.5157 42.7655 92.0151Z" fill="#3F2631"/>
<path d="M28.2296 55.5336C31.7685 54.0227 37.3897 54.0145 40.8031 55.475C44.0501 56.8642 43.5107 54.4287 40.6254 52.2416C37.1138 49.5797 31.4918 50.1201 28.0504 52.2744C26.6425 53.2893 24.8396 57.5877 28.2296 55.5336Z" fill="#3F2631"/>
<path d="M79.3418 61.218C78.0992 59.7973 76.4127 59.0632 74.6514 59.1767C72.89 59.2901 71.1974 60.2417 69.9441 61.8231C68.6909 63.4046 67.9789 65.487 67.9643 67.6146C67.9497 69.7421 68.6336 71.7415 69.8661 73.1748C71.0987 74.6082 72.7796 75.3589 74.5408 75.2624C76.302 75.166 78 74.2304 79.2631 72.6604C80.5262 71.0903 81.2515 69.0138 81.2802 66.8855C81.3088 64.7571 80.6386 62.7504 79.4161 61.3045" fill="#3F2631"/>
<path d="M35.8165 60.6376C34.3785 59.4151 32.6023 58.9371 30.8768 59.3084C29.1513 59.6796 27.6171 60.8698 26.6101 62.6184C25.6031 64.367 25.2052 66.5315 25.5037 68.6381C25.8022 70.7447 26.7727 72.6217 28.2027 73.8582C29.6327 75.0946 31.4056 75.5899 33.1335 75.2354C34.8614 74.881 36.4033 73.7058 37.4217 71.9671C38.4401 70.2283 38.8521 68.0677 38.5674 65.9583C38.2827 63.8489 37.3246 61.9626 35.9027 60.7122" fill="#3F2631"/>
<path d="M71.9776 55.3791C75.5165 53.8681 81.1378 53.8601 84.5512 55.3205C87.7982 56.7098 87.2588 54.2743 84.3735 52.0871C80.8618 49.4252 75.2399 49.9656 71.7985 52.1199C70.3905 53.1348 68.5877 57.4331 71.9776 55.3791Z" fill="#3F2631"/>
</svg>
