<svg width="130" height="139" viewBox="0 0 130 139" fill="none" xmlns="http://www.w3.org/2000/svg">
<path d="M127.982 58.2489H2.06813C1.35308 58.2489 0.773438 58.8286 0.773438 59.5436V136.42C0.773438 137.135 1.35308 137.714 2.06813 137.714H127.982C128.697 137.714 129.277 137.135 129.277 136.42V59.5436C129.277 58.8286 128.697 58.2489 127.982 58.2489Z" fill="#648C88"/>
<path d="M107.072 58.0428H1.81863C1.09884 58.0428 0.515381 58.6263 0.515381 59.3461V136.732C0.515381 137.451 1.09884 138.035 1.81863 138.035H107.072C107.792 138.035 108.376 137.451 108.376 136.732V59.3461C108.376 58.6263 107.792 58.0428 107.072 58.0428Z" fill="#A2CCC8"/>
<path d="M13.9125 68.4341H87.8294C88.3365 68.4341 88.7447 68.8423 88.7447 69.3494V123.695C88.7447 124.202 88.3365 124.61 87.8294 124.61H13.9125C13.4055 124.61 12.9973 124.202 12.9973 123.695V69.3494C12.9973 68.8423 13.4055 68.4341 13.9125 68.4341Z" fill="#1B2F45"/>
<path d="M79.7991 127.849H60.1868C59.6492 127.849 59.2134 128.285 59.2134 128.823V131.186C59.2134 131.724 59.6492 132.16 60.1868 132.16H79.7991C80.3366 132.16 80.7723 131.724 80.7723 131.186V128.823C80.7723 128.285 80.3366 127.849 79.7991 127.849Z" fill="#1B2F45"/>
<path d="M87.498 127.805H83.7599C83.2223 127.805 82.7866 128.241 82.7866 128.779V131.142C82.7866 131.68 83.2223 132.116 83.7599 132.116H87.498C88.0356 132.116 88.4714 131.68 88.4714 131.142V128.779C88.4714 128.241 88.0356 127.805 87.498 127.805Z" fill="#1B2F45"/>
<path d="M33.9114 97.6173V78.3658C33.9114 77.5653 33.2624 76.9163 32.4618 76.9163H28.9418C28.1412 76.9163 27.4922 77.5653 27.4922 78.3658V97.6173C27.4922 98.4179 28.1412 99.0669 28.9418 99.0669H32.4618C33.2624 99.0669 33.9114 98.4179 33.9114 97.6173Z" fill="#FFE575"/>
<path d="M71.4089 97.5815V78.3301C71.4089 77.5295 70.76 76.8805 69.9594 76.8805H66.4394C65.6389 76.8805 64.9899 77.5295 64.9899 78.3301V97.5815C64.9899 98.3821 65.6389 99.0312 66.4394 99.0312H69.9594C70.76 99.0312 71.4089 98.3821 71.4089 97.5815Z" fill="#FFE575"/>
<path d="M38.3247 106.003H34.8735C34.073 106.003 33.4238 106.652 33.4238 107.453V110.973C33.4238 111.773 34.073 112.422 34.8735 112.422H38.3247C39.1252 112.422 39.7742 111.773 39.7742 110.973V107.453C39.7742 106.652 39.1252 106.003 38.3247 106.003Z" fill="#FFE575"/>
<path d="M62.1687 111.414H57.796C56.9954 111.414 56.3464 112.063 56.3464 112.864V116.384C56.3464 117.185 56.9954 117.834 57.796 117.834H62.1687C62.9693 117.834 63.6182 117.185 63.6182 116.384V112.864C63.6182 112.063 62.9693 111.414 62.1687 111.414Z" fill="#FFE575"/>
<path d="M57.3832 111.414H40.2493C39.4488 111.414 38.7998 112.063 38.7998 112.864V116.384C38.7998 117.185 39.4488 117.834 40.2493 117.834H57.3832C58.1838 117.834 58.8329 117.185 58.8329 116.384V112.864C58.8329 112.063 58.1838 111.414 57.3832 111.414Z" fill="#FFE575"/>
<path d="M85.7906 58.756L37.6909 58.3568C42.3257 44.715 54.482 10.6967 62.6562 0.612854C70.5151 10.8298 80.5863 43.6875 85.7906 58.756Z" fill="#CD0080"/>
</svg>
